<?xml version="1.0" encoding="us-ascii" standalone="no"?><svg xmlns="http://www.w3.org/2000/svg" xmlns:xlink="http://www.w3.org/1999/xlink" contentStyleType="text/css" height="1455px" preserveAspectRatio="none" style="width:2451px;height:1455px;background:#FFFFFF;" version="1.1" viewBox="0 0 2451 1455" width="2451px" zoomAndPan="magnify"><defs/><g><!--cluster Identity & Access--><g id="cluster_Identity &amp; Access"><path d="M1378.5,280 L1499.5,280 A3.75,3.75 0 0 1 1502,282.5 L1509,303.6094 L2016.5,303.6094 A2.5,2.5 0 0 1 2019,306.1094 L2019,1196.5 A2.5,2.5 0 0 1 2016.5,1199 L1378.5,1199 A2.5,2.5 0 0 1 1376,1196.5 L1376,282.5 A2.5,2.5 0 0 1 1378.5,280 " fill="none" style="stroke:#000000;stroke-width:1.5;"/><line style="stroke:#000000;stroke-width:1.5;" x1="1376" x2="1509" y1="303.6094" y2="303.6094"/><text fill="#000000" font-family="sans-serif" font-size="14" font-weight="bold" lengthAdjust="spacing" textLength="120" x="1380" y="296.5332">Identity &amp; Access</text></g><!--cluster Organization Management--><g id="cluster_Organization Management"><path d="M8.5,6 L193.5,6 A3.75,3.75 0 0 1 196,8.5 L203,29.6094 L529.5,29.6094 A2.5,2.5 0 0 1 532,32.1094 L532,717 A2.5,2.5 0 0 1 529.5,719.5 L8.5,719.5 A2.5,2.5 0 0 1 6,717 L6,8.5 A2.5,2.5 0 0 1 8.5,6 " fill="none" style="stroke:#000000;stroke-width:1.5;"/><line style="stroke:#000000;stroke-width:1.5;" x1="6" x2="203" y1="29.6094" y2="29.6094"/><text fill="#000000" font-family="sans-serif" font-size="14" font-weight="bold" lengthAdjust="spacing" textLength="184" x="10" y="22.5332">Organization Management</text></g><!--cluster Event Management--><g id="cluster_Event Management"><path d="M558.5,227 L695.5,227 A3.75,3.75 0 0 1 698,229.5 L705,250.6094 L996.5,250.6094 A2.5,2.5 0 0 1 999,253.1094 L999,973.5 A2.5,2.5 0 0 1 996.5,976 L558.5,976 A2.5,2.5 0 0 1 556,973.5 L556,229.5 A2.5,2.5 0 0 1 558.5,227 " fill="none" style="stroke:#000000;stroke-width:1.5;"/><line style="stroke:#000000;stroke-width:1.5;" x1="556" x2="705" y1="250.6094" y2="250.6094"/><text fill="#000000" font-family="sans-serif" font-size="14" font-weight="bold" lengthAdjust="spacing" textLength="136" x="560" y="243.5332">Event Management</text></g><!--cluster Booking & Participation--><g id="cluster_Booking &amp; Participation"><path d="M1025.5,803 L1190.5,803 A3.75,3.75 0 0 1 1193,805.5 L1200,826.6094 L1228.5,826.6094 A2.5,2.5 0 0 1 1231,829.1094 L1231,1196.5 A2.5,2.5 0 0 1 1228.5,1199 L1025.5,1199 A2.5,2.5 0 0 1 1023,1196.5 L1023,805.5 A2.5,2.5 0 0 1 1025.5,803 " fill="none" style="stroke:#000000;stroke-width:1.5;"/><line style="stroke:#000000;stroke-width:1.5;" x1="1023" x2="1200" y1="826.6094" y2="826.6094"/><text fill="#000000" font-family="sans-serif" font-size="14" font-weight="bold" lengthAdjust="spacing" textLength="164" x="1027" y="819.5332">Booking &amp; Participation</text></g><!--cluster Finance--><g id="cluster_Finance"><path d="M2045.5,1026 L2102.5,1026 A3.75,3.75 0 0 1 2105,1028.5 L2112,1049.6094 L2441.5,1049.6094 A2.5,2.5 0 0 1 2444,1052.1094 L2444,1445.5 A2.5,2.5 0 0 1 2441.5,1448 L2045.5,1448 A2.5,2.5 0 0 1 2043,1445.5 L2043,1028.5 A2.5,2.5 0 0 1 2045.5,1026 " fill="none" style="stroke:#000000;stroke-width:1.5;"/><line style="stroke:#000000;stroke-width:1.5;" x1="2043" x2="2112" y1="1049.6094" y2="1049.6094"/><text fill="#000000" font-family="sans-serif" font-size="14" font-weight="bold" lengthAdjust="spacing" textLength="56" x="2047" y="1042.5332">Finance</text></g><!--class Role--><g id="elem_Role"><rect codeLine="3" fill="#F1F1F1" height="83.2188" id="Role" rx="2.5" ry="2.5" style="stroke:#181818;stroke-width:0.5;" width="104" x="1582" y="620.5"/><ellipse cx="1616.35" cy="636.5" fill="#A9DCDF" rx="11" ry="11" style="stroke:#181818;stroke-width:1.0;"/><path d="M1618.5375,638.2656 L1614.3969,638.2656 L1613.975,639.2969 L1614.3969,639.2969 Q1615.0063,639.2969 1615.2719,639.5313 Q1615.5375,639.7656 1615.5375,640.1563 Q1615.5375,640.5313 1615.2719,640.7656 Q1615.0063,641 1614.3969,641 L1612.1,641 Q1611.4906,641 1611.2406,640.7656 Q1610.975,640.5313 1610.975,640.1406 Q1610.975,639.7656 1611.2563,639.5313 Q1611.5219,639.2813 1612.1469,639.2969 L1614.8188,632.6406 L1613.7094,632.6406 Q1613.1,632.6406 1612.8344,632.4063 Q1612.5688,632.1719 1612.5688,631.7813 Q1612.5688,631.4063 1612.8344,631.1719 Q1613.1,630.9375 1613.7094,630.9375 L1617.3813,630.9375 L1620.7719,639.2969 Q1621.3656,639.2969 1621.5531,639.4375 Q1621.9438,639.7031 1621.9438,640.1563 Q1621.9438,640.5313 1621.6781,640.7656 Q1621.4281,641 1620.8188,641 L1618.5219,641 Q1617.9125,641 1617.6469,640.7656 Q1617.3813,640.5313 1617.3813,640.1406 Q1617.3813,639.7656 1617.6469,639.5313 Q1617.9125,639.2969 1618.5219,639.2969 L1618.9438,639.2969 L1618.5375,638.2656 Z M1617.8188,636.5625 L1616.4594,633.1875 L1615.0844,636.5625 L1617.8188,636.5625 Z " fill="#000000"/><text fill="#000000" font-family="sans-serif" font-size="14" font-style="italic" lengthAdjust="spacing" textLength="29" x="1634.65" y="642.2285">Role</text><line style="stroke:#181818;stroke-width:0.5;" x1="1583" x2="1685" y1="652.5" y2="652.5"/><rect fill="none" height="6" style="stroke:#C82930;stroke-width:1.0;" width="6" x="1590" y="663.8047"/><text fill="#000000" font-family="sans-serif" font-size="14" lengthAdjust="spacing" textLength="34" x="1602" y="671.0332">id: int</text><rect fill="none" height="6" style="stroke:#C82930;stroke-width:1.0;" width="6" x="1590" y="681.4141"/><text fill="#000000" font-family="sans-serif" font-size="14" lengthAdjust="spacing" textLength="78" x="1602" y="688.6426">name: string</text><line style="stroke:#181818;stroke-width:0.5;" x1="1583" x2="1685" y1="695.7188" y2="695.7188"/></g><!--class Admin--><g id="elem_Admin"><rect codeLine="8" fill="#F1F1F1" height="48" id="Admin" rx="2.5" ry="2.5" style="stroke:#181818;stroke-width:0.5;" width="71" x="1931.5" y="885.5"/><ellipse cx="1946.5" cy="901.5" fill="#ADD1B2" rx="11" ry="11" style="stroke:#181818;stroke-width:1.0;"/><path d="M1949.2656,897.375 Q1949.4219,897.1563 1949.6094,897.0469 Q1949.7969,896.9375 1950.0156,896.9375 Q1950.3906,896.9375 1950.625,897.2031 Q1950.8594,897.4531 1950.8594,898.0625 L1950.8594,899.5156 Q1950.8594,900.125 1950.625,900.3906 Q1950.3906,900.6563 1950.0156,900.6563 Q1949.6719,900.6563 1949.4688,900.4531 Q1949.2656,900.2656 1949.1563,899.75 Q1949.1094,899.3906 1948.9219,899.2031 Q1948.5938,898.8281 1947.9844,898.6094 Q1947.375,898.3906 1946.75,898.3906 Q1945.9844,898.3906 1945.3438,898.7188 Q1944.7188,899.0469 1944.2188,899.7969 Q1943.7344,900.5469 1943.7344,901.5781 L1943.7344,902.6719 Q1943.7344,903.9063 1944.625,904.7344 Q1945.5156,905.5469 1947.1094,905.5469 Q1948.0469,905.5469 1948.7031,905.2969 Q1949.0938,905.1406 1949.5156,904.7031 Q1949.7813,904.4375 1949.9219,904.3594 Q1950.0781,904.2813 1950.2813,904.2813 Q1950.6094,904.2813 1950.8594,904.5469 Q1951.125,904.7969 1951.125,905.1406 Q1951.125,905.4844 1950.7813,905.8906 Q1950.2813,906.4688 1949.4844,906.7969 Q1948.4063,907.25 1947.1094,907.25 Q1945.5938,907.25 1944.3906,906.625 Q1943.4063,906.125 1942.7188,905.0625 Q1942.0313,903.9844 1942.0313,902.7031 L1942.0313,901.5469 Q1942.0313,900.2188 1942.6406,899.0781 Q1943.2656,897.9219 1944.3594,897.3125 Q1945.4531,896.6875 1946.6875,896.6875 Q1947.4219,896.6875 1948.0625,896.8594 Q1948.7188,897.0156 1949.2656,897.375 Z " fill="#000000"/><text fill="#000000" font-family="sans-serif" font-size="14" lengthAdjust="spacing" textLength="39" x="1960.5" y="907.2285">Admin</text><line style="stroke:#181818;stroke-width:0.5;" x1="1932.5" x2="2001.5" y1="917.5" y2="917.5"/><line style="stroke:#181818;stroke-width:0.5;" x1="1932.5" x2="2001.5" y1="925.5" y2="925.5"/></g><!--class EventOwner--><g id="elem_EventOwner"><rect codeLine="9" fill="#F1F1F1" height="48" id="EventOwner" rx="2.5" ry="2.5" style="stroke:#181818;stroke-width:0.5;" width="109" x="1392.5" y="1135"/><ellipse cx="1407.5" cy="1151" fill="#ADD1B2" rx="11" ry="11" style="stroke:#181818;stroke-width:1.0;"/><path d="M1410.2656,1146.875 Q1410.4219,1146.6563 1410.6094,1146.5469 Q1410.7969,1146.4375 1411.0156,1146.4375 Q1411.3906,1146.4375 1411.625,1146.7031 Q1411.8594,1146.9531 1411.8594,1147.5625 L1411.8594,1149.0156 Q1411.8594,1149.625 1411.625,1149.8906 Q1411.3906,1150.1563 1411.0156,1150.1563 Q1410.6719,1150.1563 1410.4688,1149.9531 Q1410.2656,1149.7656 1410.1563,1149.25 Q1410.1094,1148.8906 1409.9219,1148.7031 Q1409.5938,1148.3281 1408.9844,1148.1094 Q1408.375,1147.8906 1407.75,1147.8906 Q1406.9844,1147.8906 1406.3438,1148.2188 Q1405.7188,1148.5469 1405.2188,1149.2969 Q1404.7344,1150.0469 1404.7344,1151.0781 L1404.7344,1152.1719 Q1404.7344,1153.4063 1405.625,1154.2344 Q1406.5156,1155.0469 1408.1094,1155.0469 Q1409.0469,1155.0469 1409.7031,1154.7969 Q1410.0938,1154.6406 1410.5156,1154.2031 Q1410.7813,1153.9375 1410.9219,1153.8594 Q1411.0781,1153.7813 1411.2813,1153.7813 Q1411.6094,1153.7813 1411.8594,1154.0469 Q1412.125,1154.2969 1412.125,1154.6406 Q1412.125,1154.9844 1411.7813,1155.3906 Q1411.2813,1155.9688 1410.4844,1156.2969 Q1409.4063,1156.75 1408.1094,1156.75 Q1406.5938,1156.75 1405.3906,1156.125 Q1404.4063,1155.625 1403.7188,1154.5625 Q1403.0313,1153.4844 1403.0313,1152.2031 L1403.0313,1151.0469 Q1403.0313,1149.7188 1403.6406,1148.5781 Q1404.2656,1147.4219 1405.3594,1146.8125 Q1406.4531,1146.1875 1407.6875,1146.1875 Q1408.4219,1146.1875 1409.0625,1146.3594 Q1409.7188,1146.5156 1410.2656,1146.875 Z " fill="#000000"/><text fill="#000000" font-family="sans-serif" font-size="14" lengthAdjust="spacing" textLength="77" x="1421.5" y="1156.7285">EventOwner</text><line style="stroke:#181818;stroke-width:0.5;" x1="1393.5" x2="1500.5" y1="1167" y2="1167"/><line style="stroke:#181818;stroke-width:0.5;" x1="1393.5" x2="1500.5" y1="1175" y2="1175"/></g><!--class Accountant--><g id="elem_Accountant"><rect codeLine="10" fill="#F1F1F1" height="48" id="Accountant" rx="2.5" ry="2.5" style="stroke:#181818;stroke-width:0.5;" width="103" x="1521.5" y="885.5"/><ellipse cx="1536.5" cy="901.5" fill="#ADD1B2" rx="11" ry="11" style="stroke:#181818;stroke-width:1.0;"/><path d="M1539.2656,897.375 Q1539.4219,897.1563 1539.6094,897.0469 Q1539.7969,896.9375 1540.0156,896.9375 Q1540.3906,896.9375 1540.625,897.2031 Q1540.8594,897.4531 1540.8594,898.0625 L1540.8594,899.5156 Q1540.8594,900.125 1540.625,900.3906 Q1540.3906,900.6563 1540.0156,900.6563 Q1539.6719,900.6563 1539.4688,900.4531 Q1539.2656,900.2656 1539.1563,899.75 Q1539.1094,899.3906 1538.9219,899.2031 Q1538.5938,898.8281 1537.9844,898.6094 Q1537.375,898.3906 1536.75,898.3906 Q1535.9844,898.3906 1535.3438,898.7188 Q1534.7188,899.0469 1534.2188,899.7969 Q1533.7344,900.5469 1533.7344,901.5781 L1533.7344,902.6719 Q1533.7344,903.9063 1534.625,904.7344 Q1535.5156,905.5469 1537.1094,905.5469 Q1538.0469,905.5469 1538.7031,905.2969 Q1539.0938,905.1406 1539.5156,904.7031 Q1539.7813,904.4375 1539.9219,904.3594 Q1540.0781,904.2813 1540.2813,904.2813 Q1540.6094,904.2813 1540.8594,904.5469 Q1541.125,904.7969 1541.125,905.1406 Q1541.125,905.4844 1540.7813,905.8906 Q1540.2813,906.4688 1539.4844,906.7969 Q1538.4063,907.25 1537.1094,907.25 Q1535.5938,907.25 1534.3906,906.625 Q1533.4063,906.125 1532.7188,905.0625 Q1532.0313,903.9844 1532.0313,902.7031 L1532.0313,901.5469 Q1532.0313,900.2188 1532.6406,899.0781 Q1533.2656,897.9219 1534.3594,897.3125 Q1535.4531,896.6875 1536.6875,896.6875 Q1537.4219,896.6875 1538.0625,896.8594 Q1538.7188,897.0156 1539.2656,897.375 Z " fill="#000000"/><text fill="#000000" font-family="sans-serif" font-size="14" lengthAdjust="spacing" textLength="71" x="1550.5" y="907.2285">Accountant</text><line style="stroke:#181818;stroke-width:0.5;" x1="1522.5" x2="1623.5" y1="917.5" y2="917.5"/><line style="stroke:#181818;stroke-width:0.5;" x1="1522.5" x2="1623.5" y1="925.5" y2="925.5"/></g><!--class OrganizationTeamMember--><g id="elem_OrganizationTeamMember"><rect codeLine="11" fill="#F1F1F1" height="48" id="OrganizationTeamMember" rx="2.5" ry="2.5" style="stroke:#181818;stroke-width:0.5;" width="199" x="1697.5" y="885.5"/><ellipse cx="1712.5" cy="901.5" fill="#ADD1B2" rx="11" ry="11" style="stroke:#181818;stroke-width:1.0;"/><path d="M1715.2656,897.375 Q1715.4219,897.1563 1715.6094,897.0469 Q1715.7969,896.9375 1716.0156,896.9375 Q1716.3906,896.9375 1716.625,897.2031 Q1716.8594,897.4531 1716.8594,898.0625 L1716.8594,899.5156 Q1716.8594,900.125 1716.625,900.3906 Q1716.3906,900.6563 1716.0156,900.6563 Q1715.6719,900.6563 1715.4688,900.4531 Q1715.2656,900.2656 1715.1563,899.75 Q1715.1094,899.3906 1714.9219,899.2031 Q1714.5938,898.8281 1713.9844,898.6094 Q1713.375,898.3906 1712.75,898.3906 Q1711.9844,898.3906 1711.3438,898.7188 Q1710.7188,899.0469 1710.2188,899.7969 Q1709.7344,900.5469 1709.7344,901.5781 L1709.7344,902.6719 Q1709.7344,903.9063 1710.625,904.7344 Q1711.5156,905.5469 1713.1094,905.5469 Q1714.0469,905.5469 1714.7031,905.2969 Q1715.0938,905.1406 1715.5156,904.7031 Q1715.7813,904.4375 1715.9219,904.3594 Q1716.0781,904.2813 1716.2813,904.2813 Q1716.6094,904.2813 1716.8594,904.5469 Q1717.125,904.7969 1717.125,905.1406 Q1717.125,905.4844 1716.7813,905.8906 Q1716.2813,906.4688 1715.4844,906.7969 Q1714.4063,907.25 1713.1094,907.25 Q1711.5938,907.25 1710.3906,906.625 Q1709.4063,906.125 1708.7188,905.0625 Q1708.0313,903.9844 1708.0313,902.7031 L1708.0313,901.5469 Q1708.0313,900.2188 1708.6406,899.0781 Q1709.2656,897.9219 1710.3594,897.3125 Q1711.4531,896.6875 1712.6875,896.6875 Q1713.4219,896.6875 1714.0625,896.8594 Q1714.7188,897.0156 1715.2656,897.375 Z " fill="#000000"/><text fill="#000000" font-family="sans-serif" font-size="14" lengthAdjust="spacing" textLength="167" x="1726.5" y="907.2285">OrganizationTeamMember</text><line style="stroke:#181818;stroke-width:0.5;" x1="1698.5" x2="1895.5" y1="917.5" y2="917.5"/><line style="stroke:#181818;stroke-width:0.5;" x1="1698.5" x2="1895.5" y1="925.5" y2="925.5"/></g><!--class Caregiver--><g id="elem_Caregiver"><rect codeLine="12" fill="#F1F1F1" height="48" id="Caregiver" rx="2.5" ry="2.5" style="stroke:#181818;stroke-width:0.5;" width="94" x="1392" y="885.5"/><ellipse cx="1407" cy="901.5" fill="#ADD1B2" rx="11" ry="11" style="stroke:#181818;stroke-width:1.0;"/><path d="M1409.7656,897.375 Q1409.9219,897.1563 1410.1094,897.0469 Q1410.2969,896.9375 1410.5156,896.9375 Q1410.8906,896.9375 1411.125,897.2031 Q1411.3594,897.4531 1411.3594,898.0625 L1411.3594,899.5156 Q1411.3594,900.125 1411.125,900.3906 Q1410.8906,900.6563 1410.5156,900.6563 Q1410.1719,900.6563 1409.9688,900.4531 Q1409.7656,900.2656 1409.6563,899.75 Q1409.6094,899.3906 1409.4219,899.2031 Q1409.0938,898.8281 1408.4844,898.6094 Q1407.875,898.3906 1407.25,898.3906 Q1406.4844,898.3906 1405.8438,898.7188 Q1405.2188,899.0469 1404.7188,899.7969 Q1404.2344,900.5469 1404.2344,901.5781 L1404.2344,902.6719 Q1404.2344,903.9063 1405.125,904.7344 Q1406.0156,905.5469 1407.6094,905.5469 Q1408.5469,905.5469 1409.2031,905.2969 Q1409.5938,905.1406 1410.0156,904.7031 Q1410.2813,904.4375 1410.4219,904.3594 Q1410.5781,904.2813 1410.7813,904.2813 Q1411.1094,904.2813 1411.3594,904.5469 Q1411.625,904.7969 1411.625,905.1406 Q1411.625,905.4844 1411.2813,905.8906 Q1410.7813,906.4688 1409.9844,906.7969 Q1408.9063,907.25 1407.6094,907.25 Q1406.0938,907.25 1404.8906,906.625 Q1403.9063,906.125 1403.2188,905.0625 Q1402.5313,903.9844 1402.5313,902.7031 L1402.5313,901.5469 Q1402.5313,900.2188 1403.1406,899.0781 Q1403.7656,897.9219 1404.8594,897.3125 Q1405.9531,896.6875 1407.1875,896.6875 Q1407.9219,896.6875 1408.5625,896.8594 Q1409.2188,897.0156 1409.7656,897.375 Z " fill="#000000"/><text fill="#000000" font-family="sans-serif" font-size="14" lengthAdjust="spacing" textLength="62" x="1421" y="907.2285">Caregiver</text><line style="stroke:#181818;stroke-width:0.5;" x1="1393" x2="1485" y1="917.5" y2="917.5"/><line style="stroke:#181818;stroke-width:0.5;" x1="1393" x2="1485" y1="925.5" y2="925.5"/></g><!--class User--><g id="elem_User"><rect codeLine="14" fill="#F1F1F1" height="118.4375" id="User" rx="2.5" ry="2.5" style="stroke:#181818;stroke-width:0.5;" width="158" x="1518" y="336"/><ellipse cx="1578.25" cy="352" fill="#ADD1B2" rx="11" ry="11" style="stroke:#181818;stroke-width:1.0;"/><path d="M1581.0156,347.875 Q1581.1719,347.6563 1581.3594,347.5469 Q1581.5469,347.4375 1581.7656,347.4375 Q1582.1406,347.4375 1582.375,347.7031 Q1582.6094,347.9531 1582.6094,348.5625 L1582.6094,350.0156 Q1582.6094,350.625 1582.375,350.8906 Q1582.1406,351.1563 1581.7656,351.1563 Q1581.4219,351.1563 1581.2188,350.9531 Q1581.0156,350.7656 1580.9063,350.25 Q1580.8594,349.8906 1580.6719,349.7031 Q1580.3438,349.3281 1579.7344,349.1094 Q1579.125,348.8906 1578.5,348.8906 Q1577.7344,348.8906 1577.0938,349.2188 Q1576.4688,349.5469 1575.9688,350.2969 Q1575.4844,351.0469 1575.4844,352.0781 L1575.4844,353.1719 Q1575.4844,354.4063 1576.375,355.2344 Q1577.2656,356.0469 1578.8594,356.0469 Q1579.7969,356.0469 1580.4531,355.7969 Q1580.8438,355.6406 1581.2656,355.2031 Q1581.5313,354.9375 1581.6719,354.8594 Q1581.8281,354.7813 1582.0313,354.7813 Q1582.3594,354.7813 1582.6094,355.0469 Q1582.875,355.2969 1582.875,355.6406 Q1582.875,355.9844 1582.5313,356.3906 Q1582.0313,356.9688 1581.2344,357.2969 Q1580.1563,357.75 1578.8594,357.75 Q1577.3438,357.75 1576.1406,357.125 Q1575.1563,356.625 1574.4688,355.5625 Q1573.7813,354.4844 1573.7813,353.2031 L1573.7813,352.0469 Q1573.7813,350.7188 1574.3906,349.5781 Q1575.0156,348.4219 1576.1094,347.8125 Q1577.2031,347.1875 1578.4375,347.1875 Q1579.1719,347.1875 1579.8125,347.3594 Q1580.4688,347.5156 1581.0156,347.875 Z " fill="#000000"/><text fill="#000000" font-family="sans-serif" font-size="14" lengthAdjust="spacing" textLength="29" x="1598.75" y="357.7285">User</text><line style="stroke:#181818;stroke-width:0.5;" x1="1519" x2="1675" y1="368" y2="368"/><rect fill="none" height="6" style="stroke:#C82930;stroke-width:1.0;" width="6" x="1526" y="379.3047"/><text fill="#000000" font-family="sans-serif" font-size="14" lengthAdjust="spacing" textLength="34" x="1538" y="386.5332">id: int</text><rect fill="none" height="6" style="stroke:#C82930;stroke-width:1.0;" width="6" x="1526" y="396.9141"/><text fill="#000000" font-family="sans-serif" font-size="14" lengthAdjust="spacing" textLength="78" x="1538" y="404.1426">name: string</text><rect fill="none" height="6" style="stroke:#C82930;stroke-width:1.0;" width="6" x="1526" y="414.5234"/><text fill="#000000" font-family="sans-serif" font-size="14" lengthAdjust="spacing" textLength="76" x="1538" y="421.752">email: string</text><rect fill="none" height="6" style="stroke:#C82930;stroke-width:1.0;" width="6" x="1526" y="432.1328"/><text fill="#000000" font-family="sans-serif" font-size="14" lengthAdjust="spacing" textLength="132" x="1538" y="439.3613">phoneNumber: string</text><line style="stroke:#181818;stroke-width:0.5;" x1="1519" x2="1675" y1="446.4375" y2="446.4375"/></g><!--class FamilyMember--><g id="elem_FamilyMember"><rect codeLine="21" fill="#F1F1F1" height="136.0469" id="FamilyMember" rx="2.5" ry="2.5" style="stroke:#181818;stroke-width:0.5;" width="128" x="1392" y="594"/><ellipse cx="1408.8" cy="610" fill="#ADD1B2" rx="11" ry="11" style="stroke:#181818;stroke-width:1.0;"/><path d="M1411.5656,605.875 Q1411.7219,605.6563 1411.9094,605.5469 Q1412.0969,605.4375 1412.3156,605.4375 Q1412.6906,605.4375 1412.925,605.7031 Q1413.1594,605.9531 1413.1594,606.5625 L1413.1594,608.0156 Q1413.1594,608.625 1412.925,608.8906 Q1412.6906,609.1563 1412.3156,609.1563 Q1411.9719,609.1563 1411.7688,608.9531 Q1411.5656,608.7656 1411.4563,608.25 Q1411.4094,607.8906 1411.2219,607.7031 Q1410.8938,607.3281 1410.2844,607.1094 Q1409.675,606.8906 1409.05,606.8906 Q1408.2844,606.8906 1407.6438,607.2188 Q1407.0188,607.5469 1406.5188,608.2969 Q1406.0344,609.0469 1406.0344,610.0781 L1406.0344,611.1719 Q1406.0344,612.4063 1406.925,613.2344 Q1407.8156,614.0469 1409.4094,614.0469 Q1410.3469,614.0469 1411.0031,613.7969 Q1411.3938,613.6406 1411.8156,613.2031 Q1412.0813,612.9375 1412.2219,612.8594 Q1412.3781,612.7813 1412.5813,612.7813 Q1412.9094,612.7813 1413.1594,613.0469 Q1413.425,613.2969 1413.425,613.6406 Q1413.425,613.9844 1413.0813,614.3906 Q1412.5813,614.9688 1411.7844,615.2969 Q1410.7063,615.75 1409.4094,615.75 Q1407.8938,615.75 1406.6906,615.125 Q1405.7063,614.625 1405.0188,613.5625 Q1404.3313,612.4844 1404.3313,611.2031 L1404.3313,610.0469 Q1404.3313,608.7188 1404.9406,607.5781 Q1405.5656,606.4219 1406.6594,605.8125 Q1407.7531,605.1875 1408.9875,605.1875 Q1409.7219,605.1875 1410.3625,605.3594 Q1411.0188,605.5156 1411.5656,605.875 Z " fill="#000000"/><text fill="#000000" font-family="sans-serif" font-size="14" lengthAdjust="spacing" textLength="92" x="1423.2" y="615.7285">FamilyMember</text><line style="stroke:#181818;stroke-width:0.5;" x1="1393" x2="1519" y1="626" y2="626"/><rect fill="none" height="6" style="stroke:#C82930;stroke-width:1.0;" width="6" x="1400" y="637.3047"/><text fill="#000000" font-family="sans-serif" font-size="14" lengthAdjust="spacing" textLength="34" x="1412" y="644.5332">id: int</text><rect fill="none" height="6" style="stroke:#C82930;stroke-width:1.0;" width="6" x="1400" y="654.9141"/><text fill="#000000" font-family="sans-serif" font-size="14" lengthAdjust="spacing" textLength="102" x="1412" y="662.1426">firstName: string</text><rect fill="none" height="6" style="stroke:#C82930;stroke-width:1.0;" width="6" x="1400" y="672.5234"/><text fill="#000000" font-family="sans-serif" font-size="14" lengthAdjust="spacing" textLength="101" x="1412" y="679.752">lastName: string</text><rect fill="none" height="6" style="stroke:#C82930;stroke-width:1.0;" width="6" x="1400" y="690.1328"/><text fill="#000000" font-family="sans-serif" font-size="14" lengthAdjust="spacing" textLength="96" x="1412" y="697.3613">birthDate: Date</text><rect fill="none" height="6" style="stroke:#C82930;stroke-width:1.0;" width="6" x="1400" y="707.7422"/><text fill="#000000" font-family="sans-serif" font-size="14" lengthAdjust="spacing" textLength="94" x="1412" y="714.9707">zipCode: string</text><line style="stroke:#181818;stroke-width:0.5;" x1="1393" x2="1519" y1="722.0469" y2="722.0469"/></g><!--class Organization--><g id="elem_Organization"><rect codeLine="34" fill="#F1F1F1" height="100.8281" id="Organization" rx="2.5" ry="2.5" style="stroke:#181818;stroke-width:0.5;" width="210" x="306" y="62"/><ellipse cx="366.75" cy="78" fill="#ADD1B2" rx="11" ry="11" style="stroke:#181818;stroke-width:1.0;"/><path d="M369.5156,73.875 Q369.6719,73.6563 369.8594,73.5469 Q370.0469,73.4375 370.2656,73.4375 Q370.6406,73.4375 370.875,73.7031 Q371.1094,73.9531 371.1094,74.5625 L371.1094,76.0156 Q371.1094,76.625 370.875,76.8906 Q370.6406,77.1563 370.2656,77.1563 Q369.9219,77.1563 369.7188,76.9531 Q369.5156,76.7656 369.4063,76.25 Q369.3594,75.8906 369.1719,75.7031 Q368.8438,75.3281 368.2344,75.1094 Q367.625,74.8906 367,74.8906 Q366.2344,74.8906 365.5938,75.2188 Q364.9688,75.5469 364.4688,76.2969 Q363.9844,77.0469 363.9844,78.0781 L363.9844,79.1719 Q363.9844,80.4063 364.875,81.2344 Q365.7656,82.0469 367.3594,82.0469 Q368.2969,82.0469 368.9531,81.7969 Q369.3438,81.6406 369.7656,81.2031 Q370.0313,80.9375 370.1719,80.8594 Q370.3281,80.7813 370.5313,80.7813 Q370.8594,80.7813 371.1094,81.0469 Q371.375,81.2969 371.375,81.6406 Q371.375,81.9844 371.0313,82.3906 Q370.5313,82.9688 369.7344,83.2969 Q368.6563,83.75 367.3594,83.75 Q365.8438,83.75 364.6406,83.125 Q363.6563,82.625 362.9688,81.5625 Q362.2813,80.4844 362.2813,79.2031 L362.2813,78.0469 Q362.2813,76.7188 362.8906,75.5781 Q363.5156,74.4219 364.6094,73.8125 Q365.7031,73.1875 366.9375,73.1875 Q367.6719,73.1875 368.3125,73.3594 Q368.9688,73.5156 369.5156,73.875 Z " fill="#000000"/><text fill="#000000" font-family="sans-serif" font-size="14" lengthAdjust="spacing" textLength="80" x="387.25" y="83.7285">Organization</text><line style="stroke:#181818;stroke-width:0.5;" x1="307" x2="515" y1="94" y2="94"/><rect fill="none" height="6" style="stroke:#C82930;stroke-width:1.0;" width="6" x="314" y="105.3047"/><text fill="#000000" font-family="sans-serif" font-size="14" lengthAdjust="spacing" textLength="34" x="326" y="112.5332">id: int</text><rect fill="none" height="6" style="stroke:#C82930;stroke-width:1.0;" width="6" x="314" y="122.9141"/><text fill="#000000" font-family="sans-serif" font-size="14" lengthAdjust="spacing" textLength="78" x="326" y="130.1426">name: string</text><rect fill="none" height="6" style="stroke:#C82930;stroke-width:1.0;" width="6" x="314" y="140.5234"/><text fill="#000000" font-family="sans-serif" font-size="14" lengthAdjust="spacing" textLength="184" x="326" y="147.752">bookingOpenDate: DateTime</text><line style="stroke:#181818;stroke-width:0.5;" x1="307" x2="515" y1="154.8281" y2="154.8281"/></g><!--class BankAccount--><g id="elem_BankAccount"><rect codeLine="40" fill="#F1F1F1" height="100.8281" id="BankAccount" rx="2.5" ry="2.5" style="stroke:#181818;stroke-width:0.5;" width="168" x="22" y="344.5"/><ellipse cx="60.85" cy="360.5" fill="#ADD1B2" rx="11" ry="11" style="stroke:#181818;stroke-width:1.0;"/><path d="M63.6156,356.375 Q63.7719,356.1563 63.9594,356.0469 Q64.1469,355.9375 64.3656,355.9375 Q64.7406,355.9375 64.975,356.2031 Q65.2094,356.4531 65.2094,357.0625 L65.2094,358.5156 Q65.2094,359.125 64.975,359.3906 Q64.7406,359.6563 64.3656,359.6563 Q64.0219,359.6563 63.8188,359.4531 Q63.6156,359.2656 63.5063,358.75 Q63.4594,358.3906 63.2719,358.2031 Q62.9438,357.8281 62.3344,357.6094 Q61.725,357.3906 61.1,357.3906 Q60.3344,357.3906 59.6938,357.7188 Q59.0688,358.0469 58.5688,358.7969 Q58.0844,359.5469 58.0844,360.5781 L58.0844,361.6719 Q58.0844,362.9063 58.975,363.7344 Q59.8656,364.5469 61.4594,364.5469 Q62.3969,364.5469 63.0531,364.2969 Q63.4438,364.1406 63.8656,363.7031 Q64.1313,363.4375 64.2719,363.3594 Q64.4281,363.2813 64.6313,363.2813 Q64.9594,363.2813 65.2094,363.5469 Q65.475,363.7969 65.475,364.1406 Q65.475,364.4844 65.1313,364.8906 Q64.6313,365.4688 63.8344,365.7969 Q62.7563,366.25 61.4594,366.25 Q59.9438,366.25 58.7406,365.625 Q57.7563,365.125 57.0688,364.0625 Q56.3813,362.9844 56.3813,361.7031 L56.3813,360.5469 Q56.3813,359.2188 56.9906,358.0781 Q57.6156,356.9219 58.7094,356.3125 Q59.8031,355.6875 61.0375,355.6875 Q61.7719,355.6875 62.4125,355.8594 Q63.0688,356.0156 63.6156,356.375 Z " fill="#000000"/><text fill="#000000" font-family="sans-serif" font-size="14" lengthAdjust="spacing" textLength="83" x="80.15" y="366.2285">BankAccount</text><line style="stroke:#181818;stroke-width:0.5;" x1="23" x2="189" y1="376.5" y2="376.5"/><rect fill="none" height="6" style="stroke:#C82930;stroke-width:1.0;" width="6" x="30" y="387.8047"/><text fill="#000000" font-family="sans-serif" font-size="14" lengthAdjust="spacing" textLength="34" x="42" y="395.0332">id: int</text><rect fill="none" height="6" style="stroke:#C82930;stroke-width:1.0;" width="6" x="30" y="405.4141"/><text fill="#000000" font-family="sans-serif" font-size="14" lengthAdjust="spacing" textLength="142" x="42" y="412.6426">accountNumber: string</text><rect fill="none" height="6" style="stroke:#C82930;stroke-width:1.0;" width="6" x="30" y="423.0234"/><text fill="#000000" font-family="sans-serif" font-size="14" lengthAdjust="spacing" textLength="110" x="42" y="430.252">bankName: string</text><line style="stroke:#181818;stroke-width:0.5;" x1="23" x2="189" y1="437.3281" y2="437.3281"/></g><!--class Sponsor--><g id="elem_Sponsor"><rect codeLine="46" fill="#F1F1F1" height="83.2188" id="Sponsor" rx="2.5" ry="2.5" style="stroke:#181818;stroke-width:0.5;" width="104" x="412" y="620.5"/><ellipse cx="435.55" cy="636.5" fill="#ADD1B2" rx="11" ry="11" style="stroke:#181818;stroke-width:1.0;"/><path d="M438.3156,632.375 Q438.4719,632.1563 438.6594,632.0469 Q438.8469,631.9375 439.0656,631.9375 Q439.4406,631.9375 439.675,632.2031 Q439.9094,632.4531 439.9094,633.0625 L439.9094,634.5156 Q439.9094,635.125 439.675,635.3906 Q439.4406,635.6563 439.0656,635.6563 Q438.7219,635.6563 438.5188,635.4531 Q438.3156,635.2656 438.2063,634.75 Q438.1594,634.3906 437.9719,634.2031 Q437.6438,633.8281 437.0344,633.6094 Q436.425,633.3906 435.8,633.3906 Q435.0344,633.3906 434.3938,633.7188 Q433.7688,634.0469 433.2688,634.7969 Q432.7844,635.5469 432.7844,636.5781 L432.7844,637.6719 Q432.7844,638.9063 433.675,639.7344 Q434.5656,640.5469 436.1594,640.5469 Q437.0969,640.5469 437.7531,640.2969 Q438.1438,640.1406 438.5656,639.7031 Q438.8313,639.4375 438.9719,639.3594 Q439.1281,639.2813 439.3313,639.2813 Q439.6594,639.2813 439.9094,639.5469 Q440.175,639.7969 440.175,640.1406 Q440.175,640.4844 439.8313,640.8906 Q439.3313,641.4688 438.5344,641.7969 Q437.4563,642.25 436.1594,642.25 Q434.6438,642.25 433.4406,641.625 Q432.4563,641.125 431.7688,640.0625 Q431.0813,638.9844 431.0813,637.7031 L431.0813,636.5469 Q431.0813,635.2188 431.6906,634.0781 Q432.3156,632.9219 433.4094,632.3125 Q434.5031,631.6875 435.7375,631.6875 Q436.4719,631.6875 437.1125,631.8594 Q437.7688,632.0156 438.3156,632.375 Z " fill="#000000"/><text fill="#000000" font-family="sans-serif" font-size="14" lengthAdjust="spacing" textLength="53" x="451.45" y="642.2285">Sponsor</text><line style="stroke:#181818;stroke-width:0.5;" x1="413" x2="515" y1="652.5" y2="652.5"/><rect fill="none" height="6" style="stroke:#C82930;stroke-width:1.0;" width="6" x="420" y="663.8047"/><text fill="#000000" font-family="sans-serif" font-size="14" lengthAdjust="spacing" textLength="34" x="432" y="671.0332">id: int</text><rect fill="none" height="6" style="stroke:#C82930;stroke-width:1.0;" width="6" x="420" y="681.4141"/><text fill="#000000" font-family="sans-serif" font-size="14" lengthAdjust="spacing" textLength="78" x="432" y="688.6426">name: string</text><line style="stroke:#181818;stroke-width:0.5;" x1="413" x2="515" y1="695.7188" y2="695.7188"/></g><!--class Booklet--><g id="elem_Booklet"><rect codeLine="51" fill="#F1F1F1" height="118.4375" id="Booklet" rx="2.5" ry="2.5" style="stroke:#181818;stroke-width:0.5;" width="198" x="225" y="336"/><ellipse cx="296.25" cy="352" fill="#ADD1B2" rx="11" ry="11" style="stroke:#181818;stroke-width:1.0;"/><path d="M299.0156,347.875 Q299.1719,347.6563 299.3594,347.5469 Q299.5469,347.4375 299.7656,347.4375 Q300.1406,347.4375 300.375,347.7031 Q300.6094,347.9531 300.6094,348.5625 L300.6094,350.0156 Q300.6094,350.625 300.375,350.8906 Q300.1406,351.1563 299.7656,351.1563 Q299.4219,351.1563 299.2188,350.9531 Q299.0156,350.7656 298.9063,350.25 Q298.8594,349.8906 298.6719,349.7031 Q298.3438,349.3281 297.7344,349.1094 Q297.125,348.8906 296.5,348.8906 Q295.7344,348.8906 295.0938,349.2188 Q294.4688,349.5469 293.9688,350.2969 Q293.4844,351.0469 293.4844,352.0781 L293.4844,353.1719 Q293.4844,354.4063 294.375,355.2344 Q295.2656,356.0469 296.8594,356.0469 Q297.7969,356.0469 298.4531,355.7969 Q298.8438,355.6406 299.2656,355.2031 Q299.5313,354.9375 299.6719,354.8594 Q299.8281,354.7813 300.0313,354.7813 Q300.3594,354.7813 300.6094,355.0469 Q300.875,355.2969 300.875,355.6406 Q300.875,355.9844 300.5313,356.3906 Q300.0313,356.9688 299.2344,357.2969 Q298.1563,357.75 296.8594,357.75 Q295.3438,357.75 294.1406,357.125 Q293.1563,356.625 292.4688,355.5625 Q291.7813,354.4844 291.7813,353.2031 L291.7813,352.0469 Q291.7813,350.7188 292.3906,349.5781 Q293.0156,348.4219 294.1094,347.8125 Q295.2031,347.1875 296.4375,347.1875 Q297.1719,347.1875 297.8125,347.3594 Q298.4688,347.5156 299.0156,347.875 Z " fill="#000000"/><text fill="#000000" font-family="sans-serif" font-size="14" lengthAdjust="spacing" textLength="47" x="316.75" y="357.7285">Booklet</text><line style="stroke:#181818;stroke-width:0.5;" x1="226" x2="422" y1="368" y2="368"/><rect fill="none" height="6" style="stroke:#C82930;stroke-width:1.0;" width="6" x="233" y="379.3047"/><text fill="#000000" font-family="sans-serif" font-size="14" lengthAdjust="spacing" textLength="34" x="245" y="386.5332">id: int</text><rect fill="none" height="6" style="stroke:#C82930;stroke-width:1.0;" width="6" x="233" y="396.9141"/><text fill="#000000" font-family="sans-serif" font-size="14" lengthAdjust="spacing" textLength="117" x="245" y="404.1426">introduction: string</text><rect fill="none" height="6" style="stroke:#C82930;stroke-width:1.0;" width="6" x="233" y="414.5234"/><text fill="#000000" font-family="sans-serif" font-size="14" lengthAdjust="spacing" textLength="172" x="245" y="421.752">referenceToWebsite: string</text><rect fill="none" height="6" style="stroke:#C82930;stroke-width:1.0;" width="6" x="233" y="432.1328"/><text fill="#000000" font-family="sans-serif" font-size="14" lengthAdjust="spacing" textLength="159" x="245" y="439.3613">contactInformation: string</text><line style="stroke:#181818;stroke-width:0.5;" x1="226" x2="422" y1="446.4375" y2="446.4375"/></g><!--class Event--><g id="elem_Event"><rect codeLine="64" fill="#F1F1F1" height="224.0938" id="Event" rx="2.5" ry="2.5" style="stroke:#181818;stroke-width:0.5;" width="237" x="572.5" y="283"/><ellipse cx="668.75" cy="299" fill="#ADD1B2" rx="11" ry="11" style="stroke:#181818;stroke-width:1.0;"/><path d="M671.5156,294.875 Q671.6719,294.6563 671.8594,294.5469 Q672.0469,294.4375 672.2656,294.4375 Q672.6406,294.4375 672.875,294.7031 Q673.1094,294.9531 673.1094,295.5625 L673.1094,297.0156 Q673.1094,297.625 672.875,297.8906 Q672.6406,298.1563 672.2656,298.1563 Q671.9219,298.1563 671.7188,297.9531 Q671.5156,297.7656 671.4063,297.25 Q671.3594,296.8906 671.1719,296.7031 Q670.8438,296.3281 670.2344,296.1094 Q669.625,295.8906 669,295.8906 Q668.2344,295.8906 667.5938,296.2188 Q666.9688,296.5469 666.4688,297.2969 Q665.9844,298.0469 665.9844,299.0781 L665.9844,300.1719 Q665.9844,301.4063 666.875,302.2344 Q667.7656,303.0469 669.3594,303.0469 Q670.2969,303.0469 670.9531,302.7969 Q671.3438,302.6406 671.7656,302.2031 Q672.0313,301.9375 672.1719,301.8594 Q672.3281,301.7813 672.5313,301.7813 Q672.8594,301.7813 673.1094,302.0469 Q673.375,302.2969 673.375,302.6406 Q673.375,302.9844 673.0313,303.3906 Q672.5313,303.9688 671.7344,304.2969 Q670.6563,304.75 669.3594,304.75 Q667.8438,304.75 666.6406,304.125 Q665.6563,303.625 664.9688,302.5625 Q664.2813,301.4844 664.2813,300.2031 L664.2813,299.0469 Q664.2813,297.7188 664.8906,296.5781 Q665.5156,295.4219 666.6094,294.8125 Q667.7031,294.1875 668.9375,294.1875 Q669.6719,294.1875 670.3125,294.3594 Q670.9688,294.5156 671.5156,294.875 Z " fill="#000000"/><text fill="#000000" font-family="sans-serif" font-size="14" lengthAdjust="spacing" textLength="36" x="689.25" y="304.7285">Event</text><line style="stroke:#181818;stroke-width:0.5;" x1="573.5" x2="808.5" y1="315" y2="315"/><rect fill="none" height="6" style="stroke:#C82930;stroke-width:1.0;" width="6" x="580.5" y="326.3047"/><text fill="#000000" font-family="sans-serif" font-size="14" lengthAdjust="spacing" textLength="34" x="592.5" y="333.5332">id: int</text><rect fill="none" height="6" style="stroke:#C82930;stroke-width:1.0;" width="6" x="580.5" y="343.9141"/><text fill="#000000" font-family="sans-serif" font-size="14" lengthAdjust="spacing" textLength="102" x="592.5" y="351.1426">shortTitle: string</text><rect fill="none" height="6" style="stroke:#C82930;stroke-width:1.0;" width="6" x="580.5" y="361.5234"/><text fill="#000000" font-family="sans-serif" font-size="14" lengthAdjust="spacing" textLength="112" x="592.5" y="368.752">description: string</text><rect fill="none" height="6" style="stroke:#C82930;stroke-width:1.0;" width="6" x="580.5" y="379.1328"/><text fill="#000000" font-family="sans-serif" font-size="14" lengthAdjust="spacing" textLength="109" x="592.5" y="386.3613">location: Address</text><rect fill="none" height="6" style="stroke:#C82930;stroke-width:1.0;" width="6" x="580.5" y="396.7422"/><text fill="#000000" font-family="sans-serif" font-size="14" lengthAdjust="spacing" textLength="142" x="592.5" y="403.9707">meetingPoint: Address</text><rect fill="none" height="6" style="stroke:#C82930;stroke-width:1.0;" width="6" x="580.5" y="414.3516"/><text fill="#000000" font-family="sans-serif" font-size="14" lengthAdjust="spacing" textLength="66" x="592.5" y="421.5801">price: float</text><rect fill="none" height="6" style="stroke:#C82930;stroke-width:1.0;" width="6" x="580.5" y="431.9609"/><text fill="#000000" font-family="sans-serif" font-size="14" lengthAdjust="spacing" textLength="211" x="592.5" y="439.1895">paymentMethod: PaymentMethod</text><rect fill="none" height="6" style="stroke:#C82930;stroke-width:1.0;" width="6" x="580.5" y="449.5703"/><text fill="#000000" font-family="sans-serif" font-size="14" lengthAdjust="spacing" textLength="95" x="592.5" y="456.7988">minimalAge: int</text><rect fill="none" height="6" style="stroke:#C82930;stroke-width:1.0;" width="6" x="580.5" y="467.1797"/><text fill="#000000" font-family="sans-serif" font-size="14" lengthAdjust="spacing" textLength="98" x="592.5" y="474.4082">maximalAge: int</text><rect fill="none" height="6" style="stroke:#C82930;stroke-width:1.0;" width="6" x="580.5" y="484.7891"/><text fill="#000000" font-family="sans-serif" font-size="14" lengthAdjust="spacing" textLength="86" x="592.5" y="492.0176">picture: string</text><line style="stroke:#181818;stroke-width:0.5;" x1="573.5" x2="808.5" y1="499.0938" y2="499.0938"/></g><!--class EventTerm--><g id="elem_EventTerm"><rect codeLine="77" fill="#F1F1F1" height="153.6563" id="EventTerm" rx="2.5" ry="2.5" style="stroke:#181818;stroke-width:0.5;" width="173" x="809.5" y="585"/><ellipse cx="857.25" cy="601" fill="#ADD1B2" rx="11" ry="11" style="stroke:#181818;stroke-width:1.0;"/><path d="M860.0156,596.875 Q860.1719,596.6563 860.3594,596.5469 Q860.5469,596.4375 860.7656,596.4375 Q861.1406,596.4375 861.375,596.7031 Q861.6094,596.9531 861.6094,597.5625 L861.6094,599.0156 Q861.6094,599.625 861.375,599.8906 Q861.1406,600.1563 860.7656,600.1563 Q860.4219,600.1563 860.2188,599.9531 Q860.0156,599.7656 859.9063,599.25 Q859.8594,598.8906 859.6719,598.7031 Q859.3438,598.3281 858.7344,598.1094 Q858.125,597.8906 857.5,597.8906 Q856.7344,597.8906 856.0938,598.2188 Q855.4688,598.5469 854.9688,599.2969 Q854.4844,600.0469 854.4844,601.0781 L854.4844,602.1719 Q854.4844,603.4063 855.375,604.2344 Q856.2656,605.0469 857.8594,605.0469 Q858.7969,605.0469 859.4531,604.7969 Q859.8438,604.6406 860.2656,604.2031 Q860.5313,603.9375 860.6719,603.8594 Q860.8281,603.7813 861.0313,603.7813 Q861.3594,603.7813 861.6094,604.0469 Q861.875,604.2969 861.875,604.6406 Q861.875,604.9844 861.5313,605.3906 Q861.0313,605.9688 860.2344,606.2969 Q859.1563,606.75 857.8594,606.75 Q856.3438,606.75 855.1406,606.125 Q854.1563,605.625 853.4688,604.5625 Q852.7813,603.4844 852.7813,602.2031 L852.7813,601.0469 Q852.7813,599.7188 853.3906,598.5781 Q854.0156,597.4219 855.1094,596.8125 Q856.2031,596.1875 857.4375,596.1875 Q858.1719,596.1875 858.8125,596.3594 Q859.4688,596.5156 860.0156,596.875 Z " fill="#000000"/><text fill="#000000" font-family="sans-serif" font-size="14" lengthAdjust="spacing" textLength="69" x="877.75" y="606.7285">EventTerm</text><line style="stroke:#181818;stroke-width:0.5;" x1="810.5" x2="981.5" y1="617" y2="617"/><rect fill="none" height="6" style="stroke:#C82930;stroke-width:1.0;" width="6" x="817.5" y="628.3047"/><text fill="#000000" font-family="sans-serif" font-size="14" lengthAdjust="spacing" textLength="34" x="829.5" y="635.5332">id: int</text><rect fill="none" height="6" style="stroke:#C82930;stroke-width:1.0;" width="6" x="817.5" y="645.9141"/><text fill="#000000" font-family="sans-serif" font-size="14" lengthAdjust="spacing" textLength="127" x="829.5" y="653.1426">startDate: DateTime</text><rect fill="none" height="6" style="stroke:#C82930;stroke-width:1.0;" width="6" x="817.5" y="663.5234"/><text fill="#000000" font-family="sans-serif" font-size="14" lengthAdjust="spacing" textLength="123" x="829.5" y="670.752">endDate: DateTime</text><rect fill="none" height="6" style="stroke:#C82930;stroke-width:1.0;" width="6" x="817.5" y="681.1328"/><text fill="#000000" font-family="sans-serif" font-size="14" lengthAdjust="spacing" textLength="144" x="829.5" y="688.3613">minimalParticipants: int</text><rect fill="none" height="6" style="stroke:#C82930;stroke-width:1.0;" width="6" x="817.5" y="698.7422"/><text fill="#000000" font-family="sans-serif" font-size="14" lengthAdjust="spacing" textLength="147" x="829.5" y="705.9707">maximalParticipants: int</text><rect fill="none" height="6" style="stroke:#C82930;stroke-width:1.0;" width="6" x="817.5" y="716.3516"/><text fill="#000000" font-family="sans-serif" font-size="14" lengthAdjust="spacing" textLength="86" x="829.5" y="723.5801">status: Status</text><line style="stroke:#181818;stroke-width:0.5;" x1="810.5" x2="981.5" y1="730.6563" y2="730.6563"/></g><!--class Remark--><g id="elem_Remark"><rect codeLine="86" fill="#F1F1F1" height="83.2188" id="Remark" rx="2.5" ry="2.5" style="stroke:#181818;stroke-width:0.5;" width="138" x="845" y="353.5"/><ellipse cx="885.65" cy="369.5" fill="#ADD1B2" rx="11" ry="11" style="stroke:#181818;stroke-width:1.0;"/><path d="M888.4156,365.375 Q888.5719,365.1563 888.7594,365.0469 Q888.9469,364.9375 889.1656,364.9375 Q889.5406,364.9375 889.775,365.2031 Q890.0094,365.4531 890.0094,366.0625 L890.0094,367.5156 Q890.0094,368.125 889.775,368.3906 Q889.5406,368.6563 889.1656,368.6563 Q888.8219,368.6563 888.6188,368.4531 Q888.4156,368.2656 888.3063,367.75 Q888.2594,367.3906 888.0719,367.2031 Q887.7438,366.8281 887.1344,366.6094 Q886.525,366.3906 885.9,366.3906 Q885.1344,366.3906 884.4938,366.7188 Q883.8688,367.0469 883.3688,367.7969 Q882.8844,368.5469 882.8844,369.5781 L882.8844,370.6719 Q882.8844,371.9063 883.775,372.7344 Q884.6656,373.5469 886.2594,373.5469 Q887.1969,373.5469 887.8531,373.2969 Q888.2438,373.1406 888.6656,372.7031 Q888.9313,372.4375 889.0719,372.3594 Q889.2281,372.2813 889.4313,372.2813 Q889.7594,372.2813 890.0094,372.5469 Q890.275,372.7969 890.275,373.1406 Q890.275,373.4844 889.9313,373.8906 Q889.4313,374.4688 888.6344,374.7969 Q887.5563,375.25 886.2594,375.25 Q884.7438,375.25 883.5406,374.625 Q882.5563,374.125 881.8688,373.0625 Q881.1813,371.9844 881.1813,370.7031 L881.1813,369.5469 Q881.1813,368.2188 881.7906,367.0781 Q882.4156,365.9219 883.5094,365.3125 Q884.6031,364.6875 885.8375,364.6875 Q886.5719,364.6875 887.2125,364.8594 Q887.8688,365.0156 888.4156,365.375 Z " fill="#000000"/><text fill="#000000" font-family="sans-serif" font-size="14" lengthAdjust="spacing" textLength="49" x="905.35" y="375.2285">Remark</text><line style="stroke:#181818;stroke-width:0.5;" x1="846" x2="982" y1="385.5" y2="385.5"/><rect fill="none" height="6" style="stroke:#C82930;stroke-width:1.0;" width="6" x="853" y="396.8047"/><text fill="#000000" font-family="sans-serif" font-size="14" lengthAdjust="spacing" textLength="34" x="865" y="404.0332">id: int</text><rect fill="none" height="6" style="stroke:#C82930;stroke-width:1.0;" width="6" x="853" y="414.4141"/><text fill="#000000" font-family="sans-serif" font-size="14" lengthAdjust="spacing" textLength="112" x="865" y="421.6426">description: string</text><line style="stroke:#181818;stroke-width:0.5;" x1="846" x2="982" y1="428.7188" y2="428.7188"/></g><!--class PaymentMethod--><g id="elem_PaymentMethod"><rect codeLine="91" fill="#F1F1F1" height="83.2188" id="PaymentMethod" rx="2.5" ry="2.5" style="stroke:#181818;stroke-width:0.5;" width="134" x="624" y="620.5"/><ellipse cx="639" cy="636.5" fill="#EB937F" rx="11" ry="11" style="stroke:#181818;stroke-width:1.0;"/><path d="M637.8594,637.2969 L637.8594,639.7969 L642.1875,639.7969 L642.1875,638.875 Q642.1875,638.2656 642.4219,638 Q642.6719,637.7344 643.0469,637.7344 Q643.4219,637.7344 643.6563,638 Q643.8906,638.2656 643.8906,638.875 L643.8906,641.5 L635.8906,641.5 Q635.2656,641.5 635,641.2656 Q634.75,641.0313 634.75,640.6406 Q634.75,640.2656 635.0156,640.0313 Q635.2813,639.7969 635.8906,639.7969 L636.1563,639.7969 L636.1563,633.1406 L635.8906,633.1406 Q635.2656,633.1406 635,632.9063 Q634.75,632.6719 634.75,632.2813 Q634.75,631.9063 635,631.6719 Q635.2656,631.4375 635.8906,631.4375 L643.5156,631.4375 L643.5156,634.0313 Q643.5156,634.6406 643.2813,634.9063 Q643.0625,635.1563 642.6719,635.1563 Q642.2969,635.1563 642.0625,634.9063 Q641.8281,634.6406 641.8281,634.0313 L641.8281,633.1406 L637.8594,633.1406 L637.8594,635.5938 L639.3438,635.5938 Q639.3438,634.9375 639.4688,634.75 Q639.7344,634.3438 640.2031,634.3438 Q640.5781,634.3438 640.8125,634.6094 Q641.0469,634.8594 641.0469,635.4688 L641.0469,637.4375 Q641.0469,637.9844 640.9219,638.1719 Q640.6563,638.5625 640.2031,638.5625 Q639.7344,638.5625 639.4688,638.1563 Q639.3438,637.9688 639.3438,637.2969 L637.8594,637.2969 Z " fill="#000000"/><text fill="#000000" font-family="sans-serif" font-size="14" lengthAdjust="spacing" textLength="102" x="653" y="642.2285">PaymentMethod</text><line style="stroke:#181818;stroke-width:0.5;" x1="625" x2="757" y1="652.5" y2="652.5"/><text fill="#000000" font-family="sans-serif" font-size="14" lengthAdjust="spacing" textLength="58" x="630" y="671.0332">ON_SITE</text><text fill="#000000" font-family="sans-serif" font-size="14" lengthAdjust="spacing" textLength="118" x="630" y="688.6426">BANK_TRANSFER</text><line style="stroke:#181818;stroke-width:0.5;" x1="625" x2="757" y1="695.7188" y2="695.7188"/></g><!--class Status--><g id="elem_Status"><rect codeLine="96" fill="#F1F1F1" height="100.8281" id="Status" rx="2.5" ry="2.5" style="stroke:#181818;stroke-width:0.5;" width="94" x="849" y="859"/><ellipse cx="873.9" cy="875" fill="#EB937F" rx="11" ry="11" style="stroke:#181818;stroke-width:1.0;"/><path d="M872.7594,875.7969 L872.7594,878.2969 L877.0875,878.2969 L877.0875,877.375 Q877.0875,876.7656 877.3219,876.5 Q877.5719,876.2344 877.9469,876.2344 Q878.3219,876.2344 878.5563,876.5 Q878.7906,876.7656 878.7906,877.375 L878.7906,880 L870.7906,880 Q870.1656,880 869.9,879.7656 Q869.65,879.5313 869.65,879.1406 Q869.65,878.7656 869.9156,878.5313 Q870.1813,878.2969 870.7906,878.2969 L871.0563,878.2969 L871.0563,871.6406 L870.7906,871.6406 Q870.1656,871.6406 869.9,871.4063 Q869.65,871.1719 869.65,870.7813 Q869.65,870.4063 869.9,870.1719 Q870.1656,869.9375 870.7906,869.9375 L878.4156,869.9375 L878.4156,872.5313 Q878.4156,873.1406 878.1813,873.4063 Q877.9625,873.6563 877.5719,873.6563 Q877.1969,873.6563 876.9625,873.4063 Q876.7281,873.1406 876.7281,872.5313 L876.7281,871.6406 L872.7594,871.6406 L872.7594,874.0938 L874.2438,874.0938 Q874.2438,873.4375 874.3688,873.25 Q874.6344,872.8438 875.1031,872.8438 Q875.4781,872.8438 875.7125,873.1094 Q875.9469,873.3594 875.9469,873.9688 L875.9469,875.9375 Q875.9469,876.4844 875.8219,876.6719 Q875.5563,877.0625 875.1031,877.0625 Q874.6344,877.0625 874.3688,876.6563 Q874.2438,876.4688 874.2438,875.7969 L872.7594,875.7969 Z " fill="#000000"/><text fill="#000000" font-family="sans-serif" font-size="14" lengthAdjust="spacing" textLength="40" x="890.1" y="880.7285">Status</text><line style="stroke:#181818;stroke-width:0.5;" x1="850" x2="942" y1="891" y2="891"/><text fill="#000000" font-family="sans-serif" font-size="14" lengthAdjust="spacing" textLength="47" x="855" y="909.5332">DRAFT</text><text fill="#000000" font-family="sans-serif" font-size="14" lengthAdjust="spacing" textLength="49" x="855" y="927.1426">ACTIVE</text><text fill="#000000" font-family="sans-serif" font-size="14" lengthAdjust="spacing" textLength="82" x="855" y="944.752">CANCELLED</text><line style="stroke:#181818;stroke-width:0.5;" x1="850" x2="942" y1="951.8281" y2="951.8281"/></g><!--class Booking--><g id="elem_Booking"><rect codeLine="109" fill="#F1F1F1" height="100.8281" id="Booking" rx="2.5" ry="2.5" style="stroke:#181818;stroke-width:0.5;" width="175" x="1039.5" y="859"/><ellipse cx="1097.25" cy="875" fill="#ADD1B2" rx="11" ry="11" style="stroke:#181818;stroke-width:1.0;"/><path d="M1100.0156,870.875 Q1100.1719,870.6563 1100.3594,870.5469 Q1100.5469,870.4375 1100.7656,870.4375 Q1101.1406,870.4375 1101.375,870.7031 Q1101.6094,870.9531 1101.6094,871.5625 L1101.6094,873.0156 Q1101.6094,873.625 1101.375,873.8906 Q1101.1406,874.1563 1100.7656,874.1563 Q1100.4219,874.1563 1100.2188,873.9531 Q1100.0156,873.7656 1099.9063,873.25 Q1099.8594,872.8906 1099.6719,872.7031 Q1099.3438,872.3281 1098.7344,872.1094 Q1098.125,871.8906 1097.5,871.8906 Q1096.7344,871.8906 1096.0938,872.2188 Q1095.4688,872.5469 1094.9688,873.2969 Q1094.4844,874.0469 1094.4844,875.0781 L1094.4844,876.1719 Q1094.4844,877.4063 1095.375,878.2344 Q1096.2656,879.0469 1097.8594,879.0469 Q1098.7969,879.0469 1099.4531,878.7969 Q1099.8438,878.6406 1100.2656,878.2031 Q1100.5313,877.9375 1100.6719,877.8594 Q1100.8281,877.7813 1101.0313,877.7813 Q1101.3594,877.7813 1101.6094,878.0469 Q1101.875,878.2969 1101.875,878.6406 Q1101.875,878.9844 1101.5313,879.3906 Q1101.0313,879.9688 1100.2344,880.2969 Q1099.1563,880.75 1097.8594,880.75 Q1096.3438,880.75 1095.1406,880.125 Q1094.1563,879.625 1093.4688,878.5625 Q1092.7813,877.4844 1092.7813,876.2031 L1092.7813,875.0469 Q1092.7813,873.7188 1093.3906,872.5781 Q1094.0156,871.4219 1095.1094,870.8125 Q1096.2031,870.1875 1097.4375,870.1875 Q1098.1719,870.1875 1098.8125,870.3594 Q1099.4688,870.5156 1100.0156,870.875 Z " fill="#000000"/><text fill="#000000" font-family="sans-serif" font-size="14" lengthAdjust="spacing" textLength="51" x="1117.75" y="880.7285">Booking</text><line style="stroke:#181818;stroke-width:0.5;" x1="1040.5" x2="1213.5" y1="891" y2="891"/><rect fill="none" height="6" style="stroke:#C82930;stroke-width:1.0;" width="6" x="1047.5" y="902.3047"/><text fill="#000000" font-family="sans-serif" font-size="14" lengthAdjust="spacing" textLength="34" x="1059.5" y="909.5332">id: int</text><rect fill="none" height="6" style="stroke:#C82930;stroke-width:1.0;" width="6" x="1047.5" y="919.9141"/><text fill="#000000" font-family="sans-serif" font-size="14" lengthAdjust="spacing" textLength="149" x="1059.5" y="927.1426">bookingDate: DateTime</text><rect fill="none" height="6" style="stroke:#C82930;stroke-width:1.0;" width="6" x="1047.5" y="937.5234"/><text fill="#000000" font-family="sans-serif" font-size="14" lengthAdjust="spacing" textLength="137" x="1059.5" y="944.752">status: BookingStatus</text><line style="stroke:#181818;stroke-width:0.5;" x1="1040.5" x2="1213.5" y1="951.8281" y2="951.8281"/></g><!--class Payment--><g id="elem_Payment"><rect fill="#F1F1F1" height="48" id="Payment" rx="2.5" ry="2.5" style="stroke:#181818;stroke-width:0.5;" width="87" x="1042.5" y="1135"/><ellipse cx="1057.5" cy="1151" fill="#ADD1B2" rx="11" ry="11" style="stroke:#181818;stroke-width:1.0;"/><path d="M1060.2656,1146.875 Q1060.4219,1146.6563 1060.6094,1146.5469 Q1060.7969,1146.4375 1061.0156,1146.4375 Q1061.3906,1146.4375 1061.625,1146.7031 Q1061.8594,1146.9531 1061.8594,1147.5625 L1061.8594,1149.0156 Q1061.8594,1149.625 1061.625,1149.8906 Q1061.3906,1150.1563 1061.0156,1150.1563 Q1060.6719,1150.1563 1060.4688,1149.9531 Q1060.2656,1149.7656 1060.1563,1149.25 Q1060.1094,1148.8906 1059.9219,1148.7031 Q1059.5938,1148.3281 1058.9844,1148.1094 Q1058.375,1147.8906 1057.75,1147.8906 Q1056.9844,1147.8906 1056.3438,1148.2188 Q1055.7188,1148.5469 1055.2188,1149.2969 Q1054.7344,1150.0469 1054.7344,1151.0781 L1054.7344,1152.1719 Q1054.7344,1153.4063 1055.625,1154.2344 Q1056.5156,1155.0469 1058.1094,1155.0469 Q1059.0469,1155.0469 1059.7031,1154.7969 Q1060.0938,1154.6406 1060.5156,1154.2031 Q1060.7813,1153.9375 1060.9219,1153.8594 Q1061.0781,1153.7813 1061.2813,1153.7813 Q1061.6094,1153.7813 1061.8594,1154.0469 Q1062.125,1154.2969 1062.125,1154.6406 Q1062.125,1154.9844 1061.7813,1155.3906 Q1061.2813,1155.9688 1060.4844,1156.2969 Q1059.4063,1156.75 1058.1094,1156.75 Q1056.5938,1156.75 1055.3906,1156.125 Q1054.4063,1155.625 1053.7188,1154.5625 Q1053.0313,1153.4844 1053.0313,1152.2031 L1053.0313,1151.0469 Q1053.0313,1149.7188 1053.6406,1148.5781 Q1054.2656,1147.4219 1055.3594,1146.8125 Q1056.4531,1146.1875 1057.6875,1146.1875 Q1058.4219,1146.1875 1059.0625,1146.3594 Q1059.7188,1146.5156 1060.2656,1146.875 Z " fill="#000000"/><text fill="#000000" font-family="sans-serif" font-size="14" lengthAdjust="spacing" textLength="55" x="1071.5" y="1156.7285">Payment</text><line style="stroke:#181818;stroke-width:0.5;" x1="1043.5" x2="1128.5" y1="1167" y2="1167"/><line style="stroke:#181818;stroke-width:0.5;" x1="1043.5" x2="1128.5" y1="1175" y2="1175"/></g><!--class Payment--><g id="elem_Payment"><rect codeLine="119" fill="#F1F1F1" height="118.4375" id="Payment" rx="2.5" ry="2.5" style="stroke:#181818;stroke-width:0.5;" width="148" x="2280" y="1100"/><ellipse cx="2322.45" cy="1116" fill="#ADD1B2" rx="11" ry="11" style="stroke:#181818;stroke-width:1.0;"/><path d="M2325.2156,1111.875 Q2325.3719,1111.6563 2325.5594,1111.5469 Q2325.7469,1111.4375 2325.9656,1111.4375 Q2326.3406,1111.4375 2326.575,1111.7031 Q2326.8094,1111.9531 2326.8094,1112.5625 L2326.8094,1114.0156 Q2326.8094,1114.625 2326.575,1114.8906 Q2326.3406,1115.1563 2325.9656,1115.1563 Q2325.6219,1115.1563 2325.4188,1114.9531 Q2325.2156,1114.7656 2325.1063,1114.25 Q2325.0594,1113.8906 2324.8719,1113.7031 Q2324.5438,1113.3281 2323.9344,1113.1094 Q2323.325,1112.8906 2322.7,1112.8906 Q2321.9344,1112.8906 2321.2938,1113.2188 Q2320.6688,1113.5469 2320.1688,1114.2969 Q2319.6844,1115.0469 2319.6844,1116.0781 L2319.6844,1117.1719 Q2319.6844,1118.4063 2320.575,1119.2344 Q2321.4656,1120.0469 2323.0594,1120.0469 Q2323.9969,1120.0469 2324.6531,1119.7969 Q2325.0438,1119.6406 2325.4656,1119.2031 Q2325.7313,1118.9375 2325.8719,1118.8594 Q2326.0281,1118.7813 2326.2313,1118.7813 Q2326.5594,1118.7813 2326.8094,1119.0469 Q2327.075,1119.2969 2327.075,1119.6406 Q2327.075,1119.9844 2326.7313,1120.3906 Q2326.2313,1120.9688 2325.4344,1121.2969 Q2324.3563,1121.75 2323.0594,1121.75 Q2321.5438,1121.75 2320.3406,1121.125 Q2319.3563,1120.625 2318.6688,1119.5625 Q2317.9813,1118.4844 2317.9813,1117.2031 L2317.9813,1116.0469 Q2317.9813,1114.7188 2318.5906,1113.5781 Q2319.2156,1112.4219 2320.3094,1111.8125 Q2321.4031,1111.1875 2322.6375,1111.1875 Q2323.3719,1111.1875 2324.0125,1111.3594 Q2324.6688,1111.5156 2325.2156,1111.875 Z " fill="#000000"/><text fill="#000000" font-family="sans-serif" font-size="14" lengthAdjust="spacing" textLength="55" x="2342.55" y="1121.7285">Payment</text><line style="stroke:#181818;stroke-width:0.5;" x1="2281" x2="2427" y1="1132" y2="1132"/><rect fill="none" height="6" style="stroke:#C82930;stroke-width:1.0;" width="6" x="2288" y="1143.3047"/><text fill="#000000" font-family="sans-serif" font-size="14" lengthAdjust="spacing" textLength="34" x="2300" y="1150.5332">id: int</text><rect fill="none" height="6" style="stroke:#C82930;stroke-width:1.0;" width="6" x="2288" y="1160.9141"/><text fill="#000000" font-family="sans-serif" font-size="14" lengthAdjust="spacing" textLength="82" x="2300" y="1168.1426">amount: float</text><rect fill="none" height="6" style="stroke:#C82930;stroke-width:1.0;" width="6" x="2288" y="1178.5234"/><text fill="#000000" font-family="sans-serif" font-size="14" lengthAdjust="spacing" textLength="66" x="2300" y="1185.752">date: Date</text><rect fill="none" height="6" style="stroke:#C82930;stroke-width:1.0;" width="6" x="2288" y="1196.1328"/><text fill="#000000" font-family="sans-serif" font-size="14" lengthAdjust="spacing" textLength="122" x="2300" y="1203.3613">type: PaymentType</text><line style="stroke:#181818;stroke-width:0.5;" x1="2281" x2="2427" y1="1210.4375" y2="1210.4375"/></g><!--class Statistic--><g id="elem_Statistic"><rect codeLine="126" fill="#F1F1F1" height="153.6563" id="Statistic" rx="2.5" ry="2.5" style="stroke:#181818;stroke-width:0.5;" width="186" x="2059" y="1082"/><ellipse cx="2123.25" cy="1098" fill="#ADD1B2" rx="11" ry="11" style="stroke:#181818;stroke-width:1.0;"/><path d="M2126.0156,1093.875 Q2126.1719,1093.6563 2126.3594,1093.5469 Q2126.5469,1093.4375 2126.7656,1093.4375 Q2127.1406,1093.4375 2127.375,1093.7031 Q2127.6094,1093.9531 2127.6094,1094.5625 L2127.6094,1096.0156 Q2127.6094,1096.625 2127.375,1096.8906 Q2127.1406,1097.1563 2126.7656,1097.1563 Q2126.4219,1097.1563 2126.2188,1096.9531 Q2126.0156,1096.7656 2125.9063,1096.25 Q2125.8594,1095.8906 2125.6719,1095.7031 Q2125.3438,1095.3281 2124.7344,1095.1094 Q2124.125,1094.8906 2123.5,1094.8906 Q2122.7344,1094.8906 2122.0938,1095.2188 Q2121.4688,1095.5469 2120.9688,1096.2969 Q2120.4844,1097.0469 2120.4844,1098.0781 L2120.4844,1099.1719 Q2120.4844,1100.4063 2121.375,1101.2344 Q2122.2656,1102.0469 2123.8594,1102.0469 Q2124.7969,1102.0469 2125.4531,1101.7969 Q2125.8438,1101.6406 2126.2656,1101.2031 Q2126.5313,1100.9375 2126.6719,1100.8594 Q2126.8281,1100.7813 2127.0313,1100.7813 Q2127.3594,1100.7813 2127.6094,1101.0469 Q2127.875,1101.2969 2127.875,1101.6406 Q2127.875,1101.9844 2127.5313,1102.3906 Q2127.0313,1102.9688 2126.2344,1103.2969 Q2125.1563,1103.75 2123.8594,1103.75 Q2122.3438,1103.75 2121.1406,1103.125 Q2120.1563,1102.625 2119.4688,1101.5625 Q2118.7813,1100.4844 2118.7813,1099.2031 L2118.7813,1098.0469 Q2118.7813,1096.7188 2119.3906,1095.5781 Q2120.0156,1094.4219 2121.1094,1093.8125 Q2122.2031,1093.1875 2123.4375,1093.1875 Q2124.1719,1093.1875 2124.8125,1093.3594 Q2125.4688,1093.5156 2126.0156,1093.875 Z " fill="#000000"/><text fill="#000000" font-family="sans-serif" font-size="14" lengthAdjust="spacing" textLength="49" x="2143.75" y="1103.7285">Statistic</text><line style="stroke:#181818;stroke-width:0.5;" x1="2060" x2="2244" y1="1114" y2="1114"/><rect fill="none" height="6" style="stroke:#C82930;stroke-width:1.0;" width="6" x="2067" y="1125.3047"/><text fill="#000000" font-family="sans-serif" font-size="14" lengthAdjust="spacing" textLength="34" x="2079" y="1132.5332">id: int</text><rect fill="none" height="6" style="stroke:#C82930;stroke-width:1.0;" width="6" x="2067" y="1142.9141"/><text fill="#000000" font-family="sans-serif" font-size="14" lengthAdjust="spacing" textLength="160" x="2079" y="1150.1426">numberOfParticipants: int</text><rect fill="none" height="6" style="stroke:#C82930;stroke-width:1.0;" width="6" x="2067" y="1160.5234"/><text fill="#000000" font-family="sans-serif" font-size="14" lengthAdjust="spacing" textLength="131" x="2079" y="1167.752">sponsorIncome: float</text><rect fill="none" height="6" style="stroke:#C82930;stroke-width:1.0;" width="6" x="2067" y="1178.1328"/><text fill="#000000" font-family="sans-serif" font-size="14" lengthAdjust="spacing" textLength="146" x="2079" y="1185.3613">participantIncome: float</text><rect fill="none" height="6" style="stroke:#C82930;stroke-width:1.0;" width="6" x="2067" y="1195.7422"/><text fill="#000000" font-family="sans-serif" font-size="14" lengthAdjust="spacing" textLength="106" x="2079" y="1202.9707">eventCosts: float</text><rect fill="none" height="6" style="stroke:#C82930;stroke-width:1.0;" width="6" x="2067" y="1213.3516"/><text fill="#000000" font-family="sans-serif" font-size="14" lengthAdjust="spacing" textLength="85" x="2079" y="1220.5801">balance: float</text><line style="stroke:#181818;stroke-width:0.5;" x1="2060" x2="2244" y1="1227.6563" y2="1227.6563"/></g><!--class PaymentType--><g id="elem_PaymentType"><rect codeLine="135" fill="#F1F1F1" height="118.4375" id="PaymentType" rx="2.5" ry="2.5" style="stroke:#181818;stroke-width:0.5;" width="119" x="2294.5" y="1314"/><ellipse cx="2309.5" cy="1330" fill="#EB937F" rx="11" ry="11" style="stroke:#181818;stroke-width:1.0;"/><path d="M2308.3594,1330.7969 L2308.3594,1333.2969 L2312.6875,1333.2969 L2312.6875,1332.375 Q2312.6875,1331.7656 2312.9219,1331.5 Q2313.1719,1331.2344 2313.5469,1331.2344 Q2313.9219,1331.2344 2314.1563,1331.5 Q2314.3906,1331.7656 2314.3906,1332.375 L2314.3906,1335 L2306.3906,1335 Q2305.7656,1335 2305.5,1334.7656 Q2305.25,1334.5313 2305.25,1334.1406 Q2305.25,1333.7656 2305.5156,1333.5313 Q2305.7813,1333.2969 2306.3906,1333.2969 L2306.6563,1333.2969 L2306.6563,1326.6406 L2306.3906,1326.6406 Q2305.7656,1326.6406 2305.5,1326.4063 Q2305.25,1326.1719 2305.25,1325.7813 Q2305.25,1325.4063 2305.5,1325.1719 Q2305.7656,1324.9375 2306.3906,1324.9375 L2314.0156,1324.9375 L2314.0156,1327.5313 Q2314.0156,1328.1406 2313.7813,1328.4063 Q2313.5625,1328.6563 2313.1719,1328.6563 Q2312.7969,1328.6563 2312.5625,1328.4063 Q2312.3281,1328.1406 2312.3281,1327.5313 L2312.3281,1326.6406 L2308.3594,1326.6406 L2308.3594,1329.0938 L2309.8438,1329.0938 Q2309.8438,1328.4375 2309.9688,1328.25 Q2310.2344,1327.8438 2310.7031,1327.8438 Q2311.0781,1327.8438 2311.3125,1328.1094 Q2311.5469,1328.3594 2311.5469,1328.9688 L2311.5469,1330.9375 Q2311.5469,1331.4844 2311.4219,1331.6719 Q2311.1563,1332.0625 2310.7031,1332.0625 Q2310.2344,1332.0625 2309.9688,1331.6563 Q2309.8438,1331.4688 2309.8438,1330.7969 L2308.3594,1330.7969 Z " fill="#000000"/><text fill="#000000" font-family="sans-serif" font-size="14" lengthAdjust="spacing" textLength="87" x="2323.5" y="1335.7285">PaymentType</text><line style="stroke:#181818;stroke-width:0.5;" x1="2295.5" x2="2412.5" y1="1346" y2="1346"/><text fill="#000000" font-family="sans-serif" font-size="14" lengthAdjust="spacing" textLength="89" x="2300.5" y="1364.5332">PARTICIPANT</text><text fill="#000000" font-family="sans-serif" font-size="14" lengthAdjust="spacing" textLength="68" x="2300.5" y="1382.1426">SPONSOR</text><text fill="#000000" font-family="sans-serif" font-size="14" lengthAdjust="spacing" textLength="92" x="2300.5" y="1399.752">EVENT_COST</text><text fill="#000000" font-family="sans-serif" font-size="14" lengthAdjust="spacing" textLength="56" x="2300.5" y="1417.3613">REFUND</text><line style="stroke:#181818;stroke-width:0.5;" x1="2295.5" x2="2412.5" y1="1424.4375" y2="1424.4375"/></g><!--class Payment--><g id="elem_Payment"><rect fill="#F1F1F1" height="48" id="Payment" rx="2.5" ry="2.5" style="stroke:#181818;stroke-width:0.5;" width="87" x="678.5" y="1135"/><ellipse cx="693.5" cy="1151" fill="#ADD1B2" rx="11" ry="11" style="stroke:#181818;stroke-width:1.0;"/><path d="M696.2656,1146.875 Q696.4219,1146.6563 696.6094,1146.5469 Q696.7969,1146.4375 697.0156,1146.4375 Q697.3906,1146.4375 697.625,1146.7031 Q697.8594,1146.9531 697.8594,1147.5625 L697.8594,1149.0156 Q697.8594,1149.625 697.625,1149.8906 Q697.3906,1150.1563 697.0156,1150.1563 Q696.6719,1150.1563 696.4688,1149.9531 Q696.2656,1149.7656 696.1563,1149.25 Q696.1094,1148.8906 695.9219,1148.7031 Q695.5938,1148.3281 694.9844,1148.1094 Q694.375,1147.8906 693.75,1147.8906 Q692.9844,1147.8906 692.3438,1148.2188 Q691.7188,1148.5469 691.2188,1149.2969 Q690.7344,1150.0469 690.7344,1151.0781 L690.7344,1152.1719 Q690.7344,1153.4063 691.625,1154.2344 Q692.5156,1155.0469 694.1094,1155.0469 Q695.0469,1155.0469 695.7031,1154.7969 Q696.0938,1154.6406 696.5156,1154.2031 Q696.7813,1153.9375 696.9219,1153.8594 Q697.0781,1153.7813 697.2813,1153.7813 Q697.6094,1153.7813 697.8594,1154.0469 Q698.125,1154.2969 698.125,1154.6406 Q698.125,1154.9844 697.7813,1155.3906 Q697.2813,1155.9688 696.4844,1156.2969 Q695.4063,1156.75 694.1094,1156.75 Q692.5938,1156.75 691.3906,1156.125 Q690.4063,1155.625 689.7188,1154.5625 Q689.0313,1153.4844 689.0313,1152.2031 L689.0313,1151.0469 Q689.0313,1149.7188 689.6406,1148.5781 Q690.2656,1147.4219 691.3594,1146.8125 Q692.4531,1146.1875 693.6875,1146.1875 Q694.4219,1146.1875 695.0625,1146.3594 Q695.7188,1146.5156 696.2656,1146.875 Z " fill="#000000"/><text fill="#000000" font-family="sans-serif" font-size="14" lengthAdjust="spacing" textLength="55" x="707.5" y="1156.7285">Payment</text><line style="stroke:#181818;stroke-width:0.5;" x1="679.5" x2="764.5" y1="1167" y2="1167"/><line style="stroke:#181818;stroke-width:0.5;" x1="679.5" x2="764.5" y1="1175" y2="1175"/></g><!--reverse link Role to Admin--><g id="link_Role_Admin"><path d="M1701.8354,703.7498 C1749.8754,731.6498 1808.3,762.51 1877,787 C1892.85,792.65 1900.85,784.51 1914,795 C1942.39,817.65 1956.29,859.05 1962.53,885.1 " fill="none" id="Role-backto-Admin" style="stroke:#181818;stroke-width:1.0;"/><polygon fill="none" points="1686.27,694.71,1698.8221,708.9383,1704.8487,698.5614,1686.27,694.71" style="stroke:#181818;stroke-width:1.0;"/></g><!--reverse link Role to EventOwner--><g id="link_Role_EventOwner"><path d="M1650.1572,721.1621 C1666.1072,784.3221 1683.7,890.9 1642,984 C1610.93,1053.36 1537.04,1106.45 1489.66,1134.86 " fill="none" id="Role-backto-EventOwner" style="stroke:#181818;stroke-width:1.0;"/><polygon fill="none" points="1645.75,703.71,1644.3399,722.6312,1655.9746,719.693,1645.75,703.71" style="stroke:#181818;stroke-width:1.0;"/></g><!--reverse link Role to Accountant--><g id="link_Role_Accountant"><path d="M1619.5873,721.0083 C1606.6873,772.8983 1589.13,843.59 1578.76,885.3 " fill="none" id="Role-backto-Accountant" style="stroke:#181818;stroke-width:1.0;"/><polygon fill="none" points="1623.93,703.54,1613.7646,719.5607,1625.4101,722.4558,1623.93,703.54" style="stroke:#181818;stroke-width:1.0;"/></g><!--reverse link Role to OrganizationTeamMember--><g id="link_Role_OrganizationTeamMember"><path d="M1670.8759,718.536 C1705.3259,770.426 1753.9,843.59 1781.6,885.3 " fill="none" id="Role-backto-OrganizationTeamMember" style="stroke:#181818;stroke-width:1.0;"/><polygon fill="none" points="1660.92,703.54,1665.8772,721.8546,1675.8746,715.2174,1660.92,703.54" style="stroke:#181818;stroke-width:1.0;"/></g><!--reverse link Role to Caregiver--><g id="link_Role_Caregiver"><path d="M1575.4737,715.868 C1549.0337,740.758 1529.17,761.81 1504,795 C1481.91,824.13 1461.89,861.51 1450.08,885.24 " fill="none" id="Role-backto-Caregiver" style="stroke:#181818;stroke-width:1.0;"/><polygon fill="none" points="1588.58,703.53,1571.3611,711.4992,1579.5864,720.2367,1588.58,703.53" style="stroke:#181818;stroke-width:1.0;"/></g><!--link User to Role--><g id="link_User_Role"><path codeLine="29" d="M1605.12,454.16 C1612.14,504.43 1622.11,575.83 1628.31,620.23 " fill="none" id="User-Role" style="stroke:#181818;stroke-width:1.0;"/><text fill="#000000" font-family="sans-serif" font-size="13" lengthAdjust="spacing" textLength="21" x="1619" y="551.4951">has</text><text fill="#000000" font-family="sans-serif" font-size="13" lengthAdjust="spacing" textLength="7" x="1598.6831" y="475.835">1</text><text fill="#000000" font-family="sans-serif" font-size="13" lengthAdjust="spacing" textLength="20" x="1605.7113" y="609.493">1..*</text></g><!--link User to FamilyMember--><g id="link_User_FamilyMember"><path codeLine="30" d="M1566.06,454.16 C1544.17,495.29 1514.76,550.56 1491.85,593.62 " fill="none" id="User-FamilyMember" style="stroke:#181818;stroke-width:1.0;"/><text fill="#000000" font-family="sans-serif" font-size="13" lengthAdjust="spacing" textLength="53" x="1520" y="551.4951">manages</text><text fill="#000000" font-family="sans-serif" font-size="13" lengthAdjust="spacing" textLength="7" x="1554.8626" y="475.835">1</text><text fill="#000000" font-family="sans-serif" font-size="13" lengthAdjust="spacing" textLength="20" x="1474.5158" y="583.2541">0..*</text></g><!--link Organization to BankAccount--><g id="link_Organization_BankAccount"><path codeLine="58" d="M305.83,153.75 C271.59,170.34 235.19,192.08 207,219 C169.96,254.37 142.32,306.32 125.4,344.43 " fill="none" id="Organization-BankAccount" style="stroke:#181818;stroke-width:1.0;"/><text fill="#000000" font-family="sans-serif" font-size="13" lengthAdjust="spacing" textLength="28" x="237" y="207.4951">uses</text><text fill="#000000" font-family="sans-serif" font-size="13" lengthAdjust="spacing" textLength="7" x="290.8495" y="153.7061">1</text><text fill="#000000" font-family="sans-serif" font-size="13" lengthAdjust="spacing" textLength="7" x="120.6359" y="333.7255">1</text></g><!--link Organization to Sponsor--><g id="link_Organization_Sponsor"><path codeLine="59" d="M438.59,163.23 C442.81,172.85 446.57,183.04 449,193 C486.57,347.21 475.56,538.43 468.21,620.5 " fill="none" id="Organization-Sponsor" style="stroke:#181818;stroke-width:1.0;"/><text fill="#000000" font-family="sans-serif" font-size="13" lengthAdjust="spacing" textLength="21" x="477" y="400.4951">has</text><text fill="#000000" font-family="sans-serif" font-size="13" lengthAdjust="spacing" textLength="7" x="434.6765" y="184.2834">1</text><text fill="#000000" font-family="sans-serif" font-size="13" lengthAdjust="spacing" textLength="20" x="447.2148" y="609.4987">0..*</text></g><!--link Organization to Booklet--><g id="link_Organization_Booklet"><path codeLine="60" d="M395.65,163 C380.67,211.29 357.89,284.72 342.06,335.78 " fill="none" id="Organization-Booklet" style="stroke:#181818;stroke-width:1.0;"/><text fill="#000000" font-family="sans-serif" font-size="13" lengthAdjust="spacing" textLength="53" x="387" y="207.4951">produces</text><text fill="#000000" font-family="sans-serif" font-size="13" lengthAdjust="spacing" textLength="7" x="386.117" y="184.3912">1</text><text fill="#000000" font-family="sans-serif" font-size="13" lengthAdjust="spacing" textLength="20" x="323.0423" y="325.0774">0..*</text></g><!--link Event to EventTerm--><g id="link_Event_EventTerm"><path codeLine="102" d="M777.05,507.23 C797.21,533.29 818.24,560.48 836.92,584.62 " fill="none" id="Event-EventTerm" style="stroke:#181818;stroke-width:1.0;"/><text fill="#000000" font-family="sans-serif" font-size="13" lengthAdjust="spacing" textLength="21" x="813" y="551.4951">has</text><text fill="#000000" font-family="sans-serif" font-size="13" lengthAdjust="spacing" textLength="7" x="775.3384" y="528.4356">1</text><text fill="#000000" font-family="sans-serif" font-size="13" lengthAdjust="spacing" textLength="20" x="810.5517" y="574.2762">1..*</text></g><!--link Event to PaymentMethod--><g id="link_Event_PaymentMethod"><path codeLine="103" d="M691,507.23 C691,547.32 691,590.07 691,620.29 " fill="none" id="Event-PaymentMethod" style="stroke:#181818;stroke-width:1.0;"/><text fill="#000000" font-family="sans-serif" font-size="13" lengthAdjust="spacing" textLength="28" x="692" y="551.4951">uses</text><text fill="#000000" font-family="sans-serif" font-size="13" lengthAdjust="spacing" textLength="7" x="683.7758" y="528.4356">1</text><text fill="#000000" font-family="sans-serif" font-size="13" lengthAdjust="spacing" textLength="7" x="683.4203" y="609.5629">1</text></g><!--link EventTerm to Status--><g id="link_EventTerm_Status"><path codeLine="104" d="M896,739.33 C896,778.32 896,824.64 896,858.94 " fill="none" id="EventTerm-Status" style="stroke:#181818;stroke-width:1.0;"/><text fill="#000000" font-family="sans-serif" font-size="13" lengthAdjust="spacing" textLength="21" x="897" y="783.4951">has</text><text fill="#000000" font-family="sans-serif" font-size="13" lengthAdjust="spacing" textLength="7" x="888.6992" y="760.188">1</text><text fill="#000000" font-family="sans-serif" font-size="13" lengthAdjust="spacing" textLength="7" x="888.5078" y="848.2369">1</text></g><!--link Remark to EventTerm--><g id="link_Remark_EventTerm"><path codeLine="105" d="M911.25,436.54 C908.58,475.83 904.46,536.41 901.18,584.74 " fill="none" id="Remark-EventTerm" style="stroke:#181818;stroke-width:1.0;"/><text fill="#000000" font-family="sans-serif" font-size="13" lengthAdjust="spacing" textLength="32" x="905" y="551.4951">about</text><text fill="#000000" font-family="sans-serif" font-size="13" lengthAdjust="spacing" textLength="7" x="903.2148" y="458.2512">1</text><text fill="#000000" font-family="sans-serif" font-size="13" lengthAdjust="spacing" textLength="7" x="894.3401" y="574.1419">1</text></g><!--link Booking to Payment--><g id="link_Booking_Payment"><path codeLine="115" d="M1095.22,960.21 C1090.17,970.36 1085.72,981.24 1083,992 C1070.47,1041.6 1076.75,1102.22 1081.79,1134.74 " fill="none" id="Booking-Payment" style="stroke:#181818;stroke-width:1.0;"/><text fill="#000000" font-family="sans-serif" font-size="13" lengthAdjust="spacing" textLength="42" x="1084" y="1006.4951">paid by</text><text fill="#000000" font-family="sans-serif" font-size="13" lengthAdjust="spacing" textLength="20" x="1069.8669" y="981.2609">1..*</text><text fill="#000000" font-family="sans-serif" font-size="13" lengthAdjust="spacing" textLength="22" x="1055.8924" y="1124.0135">0..1</text></g><!--link Payment to PaymentType--><g id="link_Payment_PaymentType"><path codeLine="142" d="M2354,1218.21 C2354,1248 2354,1284.15 2354,1313.92 " fill="none" id="Payment-PaymentType" style="stroke:#181818;stroke-width:1.0;"/><text fill="#000000" font-family="sans-serif" font-size="13" lengthAdjust="spacing" textLength="21" x="2355" y="1280.4951">has</text><text fill="#000000" font-family="sans-serif" font-size="13" lengthAdjust="spacing" textLength="7" x="2346.5734" y="1239.8911">1</text><text fill="#000000" font-family="sans-serif" font-size="13" lengthAdjust="spacing" textLength="7" x="2346.5734" y="1303.2345">1</text></g><!--link Admin to Organization--><g id="link_Admin_Organization"><path codeLine="145" d="M1968.48,885.2 C1973.27,788.31 1978.21,413.19 1784,219 C1694.93,129.94 821.99,116.01 516.18,113.88 " fill="none" id="Admin-Organization" style="stroke:#181818;stroke-width:1.0;"/><text fill="#000000" font-family="sans-serif" font-size="13" lengthAdjust="spacing" textLength="53" x="1944" y="551.4951">manages</text><text fill="#000000" font-family="sans-serif" font-size="13" lengthAdjust="spacing" textLength="7" x="1960.9624" y="874.4633">1</text><text fill="#000000" font-family="sans-serif" font-size="13" lengthAdjust="spacing" textLength="20" x="523.9187" y="110.9479">1..*</text></g><!--link Organization to OrganizationTeamMember--><g id="link_Organization_OrganizationTeamMember"><path codeLine="146" d="M516.24,114.79 C807.55,119.38 1608.74,139.21 1694,219 C1890.4,402.81 1823.42,787.15 1802.34,885.29 " fill="none" id="Organization-OrganizationTeamMember" style="stroke:#181818;stroke-width:1.0;"/><text fill="#000000" font-family="sans-serif" font-size="13" lengthAdjust="spacing" textLength="21" x="1828" y="551.4951">has</text><text fill="#000000" font-family="sans-serif" font-size="13" lengthAdjust="spacing" textLength="7" x="523.8858" y="129.027">1</text><text fill="#000000" font-family="sans-serif" font-size="13" lengthAdjust="spacing" textLength="20" x="1781.1459" y="874.5763">1..*</text></g><!--link Organization to Event--><g id="link_Organization_Event"><path codeLine="147" d="M505.97,163.18 C519.73,172.23 533.2,182.25 545,193 C573.61,219.07 600.11,251.57 622.45,282.78 " fill="none" id="Organization-Event" style="stroke:#181818;stroke-width:1.0;"/><text fill="#000000" font-family="sans-serif" font-size="13" lengthAdjust="spacing" textLength="31" x="561" y="207.4951">offers</text><text fill="#000000" font-family="sans-serif" font-size="13" lengthAdjust="spacing" textLength="7" x="510.6896" y="184.227">1</text><text fill="#000000" font-family="sans-serif" font-size="13" lengthAdjust="spacing" textLength="20" x="618.5162" y="272.2065">1..*</text></g><!--link Organization to Statistic--><g id="link_Organization_Statistic"><path codeLine="148" d="M516.06,114.29 C853.51,117.65 1895.13,134.82 2019,219 C2091.68,268.39 2111,306.13 2111,394 C2111,394 2111,394 2111,910.5 C2111,968.54 2122.11,1033.21 2132.76,1081.89 " fill="none" id="Organization-Statistic" style="stroke:#181818;stroke-width:1.0;"/><text fill="#000000" font-family="sans-serif" font-size="13" lengthAdjust="spacing" textLength="36" x="2112" y="667.4951">tracks</text><text fill="#000000" font-family="sans-serif" font-size="13" lengthAdjust="spacing" textLength="7" x="523.9766" y="110.9115">1</text><text fill="#000000" font-family="sans-serif" font-size="13" lengthAdjust="spacing" textLength="20" x="2109.8817" y="1071.0413">0..*</text></g><!--link OrganizationTeamMember to EventOwner--><g id="link_OrganizationTeamMember_EventOwner"><path codeLine="149" d="M1768.74,933.68 C1743.32,954.28 1704.75,984.92 1670,1010 C1605.95,1056.23 1528.63,1106.33 1483.91,1134.77 " fill="none" id="OrganizationTeamMember-EventOwner" style="stroke:#181818;stroke-width:1.0;"/><text fill="#000000" font-family="sans-serif" font-size="13" lengthAdjust="spacing" textLength="53" x="1692" y="1006.4951">manages</text><text fill="#000000" font-family="sans-serif" font-size="13" lengthAdjust="spacing" textLength="7" x="1753.9985" y="955.0618">1</text><text fill="#000000" font-family="sans-serif" font-size="13" lengthAdjust="spacing" textLength="20" x="1470.8057" y="1124.0512">0..*</text></g><!--link Event to EventOwner--><g id="link_Event_EventOwner"><path codeLine="150" d="M809.55,497.38 C815.31,500.83 821.15,504.06 827,507 C875.73,531.49 897.79,511.48 946,537 C1003.3,567.33 1051.17,552.81 1231,795 C1286.46,869.7 1273.52,903.99 1321,984 C1354.69,1040.77 1402.03,1102.22 1428.03,1134.74 " fill="none" id="Event-EventOwner" style="stroke:#181818;stroke-width:1.0;"/><text fill="#000000" font-family="sans-serif" font-size="13" lengthAdjust="spacing" textLength="71" x="1224" y="783.4951">managed by</text><text fill="#000000" font-family="sans-serif" font-size="13" lengthAdjust="spacing" textLength="7" x="817.3688" y="500.9296">1</text><text fill="#000000" font-family="sans-serif" font-size="13" lengthAdjust="spacing" textLength="20" x="1400.6064" y="1124.0135">1..*</text></g><!--link EventTerm to Caregiver--><g id="link_EventTerm_Caregiver"><path codeLine="151" d="M982.53,727.77 C1017.78,750.66 1060.05,773.94 1102,787 C1156.85,804.08 1175.81,779.09 1231,795 C1298.39,814.43 1368.28,858.33 1407.45,885.48 " fill="none" id="EventTerm-Caregiver" style="stroke:#181818;stroke-width:1.0;"/><text fill="#000000" font-family="sans-serif" font-size="13" lengthAdjust="spacing" textLength="79" x="1103" y="783.4951">supervised by</text><text fill="#000000" font-family="sans-serif" font-size="13" lengthAdjust="spacing" textLength="7" x="990.5483" y="730.4412">1</text><text fill="#000000" font-family="sans-serif" font-size="13" lengthAdjust="spacing" textLength="20" x="1376.8028" y="874.815">1..*</text></g><!--link EventTerm to Booking--><g id="link_EventTerm_Booking"><path codeLine="152" d="M967.82,739.33 C1004.51,778.32 1048.09,824.64 1080.37,858.94 " fill="none" id="EventTerm-Booking" style="stroke:#181818;stroke-width:1.0;"/><text fill="#000000" font-family="sans-serif" font-size="13" lengthAdjust="spacing" textLength="21" x="1013" y="783.4951">has</text><text fill="#000000" font-family="sans-serif" font-size="13" lengthAdjust="spacing" textLength="7" x="966.6913" y="760.188">1</text><text fill="#000000" font-family="sans-serif" font-size="13" lengthAdjust="spacing" textLength="20" x="1052.4064" y="848.2369">0..*</text></g><!--link Booking to FamilyMember--><g id="link_Booking_FamilyMember"><path codeLine="153" d="M1214.6,864.44 C1261.69,841.82 1321.19,814.91 1376,795 C1388.57,790.44 1394.99,795.87 1405,787 C1421.82,772.11 1433.2,750.82 1440.86,730.08 " fill="none" id="Booking-FamilyMember" style="stroke:#181818;stroke-width:1.0;"/><text fill="#000000" font-family="sans-serif" font-size="13" lengthAdjust="spacing" textLength="14" x="1421" y="783.4951">for</text><text fill="#000000" font-family="sans-serif" font-size="13" lengthAdjust="spacing" textLength="7" x="1222.4289" y="857.3978">1</text><text fill="#000000" font-family="sans-serif" font-size="13" lengthAdjust="spacing" textLength="7" x="1431.9377" y="751.4366">1</text></g><!--link Booking to EventOwner--><g id="link_Booking_EventOwner"><path codeLine="154" d="M1135.84,960.03 C1141.64,978.46 1151.22,997.84 1167,1010 C1189.71,1027.5 1204.07,1008.18 1231,1018 C1305.94,1045.33 1381.39,1102.61 1420.2,1134.79 " fill="none" id="Booking-EventOwner" style="stroke:#181818;stroke-width:1.0;"/><text fill="#000000" font-family="sans-serif" font-size="13" lengthAdjust="spacing" textLength="73" x="1168" y="1006.4951">cancelled by</text><text fill="#000000" font-family="sans-serif" font-size="13" lengthAdjust="spacing" textLength="20" x="1115.6841" y="981.4253">0..*</text><text fill="#000000" font-family="sans-serif" font-size="13" lengthAdjust="spacing" textLength="7" x="1405.4356" y="1124.0763">1</text></g><!--link Remark to FamilyMember--><g id="link_Remark_FamilyMember"><path codeLine="155" d="M983.38,404 C1077.45,417.7 1247.19,452.83 1365,537 C1385.86,551.9 1403.87,573.07 1418.24,593.7 " fill="none" id="Remark-FamilyMember" style="stroke:#181818;stroke-width:1.0;"/><text fill="#000000" font-family="sans-serif" font-size="13" lengthAdjust="spacing" textLength="32" x="1386" y="551.4951">about</text><text fill="#000000" font-family="sans-serif" font-size="13" lengthAdjust="spacing" textLength="7" x="990.8958" y="401.6051">1</text><text fill="#000000" font-family="sans-serif" font-size="13" lengthAdjust="spacing" textLength="7" x="1406.9851" y="583.3424">1</text></g><!--link Remark to EventOwner--><g id="link_Remark_EventOwner"><path codeLine="156" d="M983.32,405.86 C1060.54,420.58 1183.51,455.86 1252,537 C1391.15,701.86 1281.69,809.37 1361,1010 C1379.46,1056.71 1411.03,1106.24 1430.35,1134.52 " fill="none" id="Remark-EventOwner" style="stroke:#181818;stroke-width:1.0;"/><text fill="#000000" font-family="sans-serif" font-size="13" lengthAdjust="spacing" textLength="56" x="1330" y="783.4951">written by</text><text fill="#000000" font-family="sans-serif" font-size="13" lengthAdjust="spacing" textLength="7" x="990.8296" y="421.3069">1</text><text fill="#000000" font-family="sans-serif" font-size="13" lengthAdjust="spacing" textLength="7" x="1427.1447" y="1124.141">1</text></g><!--link Sponsor to Payment--><g id="link_Sponsor_Payment"><path codeLine="157" d="M461.7,703.71 C459.91,767.68 463.96,893.75 515,984 C553.82,1052.65 630.84,1106.13 679.2,1134.79 " fill="none" id="Sponsor-Payment" style="stroke:#181818;stroke-width:1.0;"/><text fill="#000000" font-family="sans-serif" font-size="13" lengthAdjust="spacing" textLength="39" x="516" y="914.9951">makes</text><text fill="#000000" font-family="sans-serif" font-size="13" lengthAdjust="spacing" textLength="7" x="453.7756" y="725.1382">1</text><text fill="#000000" font-family="sans-serif" font-size="13" lengthAdjust="spacing" textLength="20" x="650.455" y="1126.9794">0..*</text></g><!--link Booklet to Event--><g id="link_Booklet_Event"><path codeLine="158" d="M352.82,335.93 C374.13,299.52 406.9,255.92 450,235 C482.79,219.09 498.35,221 532,235 C558.03,245.83 582,263.23 603,282.64 " fill="none" id="Booklet-Event" style="stroke:#181818;stroke-width:1.0;"/><text fill="#000000" font-family="sans-serif" font-size="13" lengthAdjust="spacing" textLength="49" x="487.5" y="207.4951">contains</text><text fill="#000000" font-family="sans-serif" font-size="13" lengthAdjust="spacing" textLength="7" x="348.9059" y="325.2457">1</text><text fill="#000000" font-family="sans-serif" font-size="13" lengthAdjust="spacing" textLength="20" x="576.4156" y="272.0571">0..*</text></g><!--link Booklet to Sponsor--><g id="link_Booklet_Sponsor"><path codeLine="159" d="M354.72,454.16 C381.29,504.43 419,575.83 442.46,620.23 " fill="none" id="Booklet-Sponsor" style="stroke:#181818;stroke-width:1.0;"/><text fill="#000000" font-family="sans-serif" font-size="13" lengthAdjust="spacing" textLength="24" x="408" y="551.4951">lists</text><text fill="#000000" font-family="sans-serif" font-size="13" lengthAdjust="spacing" textLength="7" x="351.0374" y="475.835">1</text><text fill="#000000" font-family="sans-serif" font-size="13" lengthAdjust="spacing" textLength="20" x="417.2362" y="609.493">0..*</text></g><!--link Accountant to Payment--><g id="link_Accountant_Payment"><path codeLine="160" d="M1557.89,933.67 C1545.38,950.73 1525.98,972.83 1503,984 C1393.78,1037.1 1352.17,1001.89 1231,1010 C1184.85,1013.09 1067.96,1007.14 1023,1018 C922.16,1042.35 814.32,1101.67 759.17,1134.75 " fill="none" id="Accountant-Payment" style="stroke:#181818;stroke-width:1.0;"/><text fill="#000000" font-family="sans-serif" font-size="13" lengthAdjust="spacing" textLength="53" x="1486" y="1006.4951">manages</text><text fill="#000000" font-family="sans-serif" font-size="13" lengthAdjust="spacing" textLength="7" x="1546.3538" y="955.0494">1</text><text fill="#000000" font-family="sans-serif" font-size="13" lengthAdjust="spacing" textLength="20" x="746.1323" y="1124.0261">0..*</text></g><!--link Accountant to Statistic--><g id="link_Accountant_Statistic"><path codeLine="161" d="M1598.6,933.64 C1619.06,950.68 1649.31,972.77 1680,984 C1688.89,987.25 2010.5,1013.84 2019,1018 C2049.11,1032.75 2075.99,1057.34 2097.57,1081.83 " fill="none" id="Accountant-Statistic" style="stroke:#181818;stroke-width:1.0;"/><text fill="#000000" font-family="sans-serif" font-size="13" lengthAdjust="spacing" textLength="43" x="1944" y="1006.4951">delivers</text><text fill="#000000" font-family="sans-serif" font-size="13" lengthAdjust="spacing" textLength="7" x="1596.9869" y="955.0121">1</text><text fill="#000000" font-family="sans-serif" font-size="13" lengthAdjust="spacing" textLength="20" x="2071.429" y="1071.2405">0..*</text></g><!--SRC=[bLR9Rjim4BtxAmWVUYYGehdwfZWsO3IH3LjjZm4jqJPXaHH8AebRzDyxNBHG4eFsecKuo-ERXQnmViLdWkQRWd1DzGrzGacU4wNcwFSC8NnKMk9Sexp4Ig6zA8cL8tI7QB50b6l_np4Z2mJQb9z1z6S63sUK58noHDuruKNZua-xkdg5mDitJcHK1G29cclCTLHbAy-OqrzOKy4pWjapOSSFF2wn96VwEg7HgdnNiFfFMpKYmZ0j1xBg8ZX9QmDacfWrPhIyUQZJeKvKAfsEuu7zbFX8fRuyOWroy_JINxHQYcAK7Rl3-VqStTt1wykNptF7mW9Ti1gkVxNh0U85OfX3yQWPkAkQGkfd0ZrR1GOPTkKqJjQ_KtmKuWf_suhmReSPPIGazG7pgo-OY6_iLaUPiK70EerMyg4IN0dvtntm0D1B4iC3Nr8KTMxe6C2Hv4GauJd9n4zoL5GFISa5z4MkD_ma9CC33nP1G7QRxNd0qmBLYgYOiajzi_UcEZvGRRQxG9NTsA12RCT7IiEjJVEaBaBgZEfoI491L2vfDS5VAN9FIb8K4gQQbpD2D6Zj17WVhbMIvX3XL0hSHAxmpG1z9leY0DAk_zjuf9moN2PdqeVCyFk4jAAvhcMaLYm36P4ineB6KeyQmCuWNapAFRGTsD6SLZ16rGJ6s3B4qpL83lOTOjt3s9FN2D3fh5XhmciMikXzRDENmoPRsU-79FtsaksJzB1UxGDB1yMRFEwJTMQ_acMs-U5ibqcwN3qzhHuRErTNuR3hc6vgUg0r7s1iswIpxEbwL8qlpqrFeHyF7qMjWwvuSECDpjys4uQwVdCqAjDy-_auMG9D4hs7C9UDMq-Bx-DkzwQFCItGyHO0NbEEOJBr0JO6aRdBpB09EwiOdbNwLf6smpBu6KnWG4uLq1ERmNQeRq_HQdPJRCDpmKPDtffCBHEJlQLGnbzVViIbeQ4JZYhSxCB3tINxRBFSx9BKbUnXjqqFsxtzNlrOfTdBSdjmI_lL-dlQrc_3xBWshNTNTA3fxbfXdGUJkZkqfm-6aKNlDkMYV63d-cU1n0cEhOYcFqtQF2wGkM1UG-rUqD2kTrliTX9jxb3HLl14wrhzxaO8mwgkY7obAcRHdNAcRHmhNHEr2HfSbk24xhI-jgrsFy2QcsegInTxF4G6JjqSYSoQnkMRf1fkkSPXSug7M-aQdU4hSPin1_W4zmQXkNDG7bFhBWebP5ZDUhVtU5INoAXglrmAKfeygTbV]--></g></svg>